<svg width="64" height="64" viewBox="0 0 64 64" fill="none" xmlns="http://www.w3.org/2000/svg">
<path d="M62.6177 1.35159C61.84 0.57785 58.9672 -1.64018 54.6462 2.14516L27.9739 25.5598C24.0298 25.3535 20.1691 26.77 17.292 29.4762C14.2367 32.2061 12.4273 36.0668 12.2924 40.1621C12.1218 42.3881 11.5346 44.5664 10.5585 46.5782C9.72128 48.1137 10.2133 50.0381 11.6854 50.9825C14.4113 52.7839 17.5896 53.7798 20.8551 53.8512C25.2793 53.7441 29.4655 51.8276 32.4411 48.5501C35.7384 45.3877 37.6549 41.0548 37.7739 36.4878L37.7699 36.464L61.8469 9.32342C65.6402 4.99448 63.3983 2.12969 62.6167 1.35191L62.6177 1.35159ZM30.2916 46.3871C23.3993 53.2475 16.7137 50.6088 13.3444 48.4226C13.2095 48.3353 13.1658 48.1567 13.2452 48.0139C14.3919 45.6847 15.0942 43.1612 15.3125 40.5741C15.368 37.2133 16.8124 34.0232 19.3042 31.7694C21.3953 29.7974 24.1331 28.6506 27.0058 28.5435C29.1127 28.4721 31.1522 29.2934 32.6243 30.8092C34.0924 32.321 34.8582 34.3842 34.7233 36.4872C34.6082 40.2447 33.0136 43.8 30.2916 46.3871ZM59.5622 7.29998L37.1318 32.5837C36.6755 31.1195 35.8819 29.7863 34.8106 28.6833C33.8623 27.7588 32.7553 27.0129 31.541 26.4811L56.6581 4.43975C57.8048 3.43191 59.3999 2.45188 60.4712 3.51523C61.3243 4.36436 61.0184 5.64141 59.5622 7.29998Z" fill="#E8E8E8"/>
<path d="M0 58.4066C0 59.2478 0.68248 59.9303 1.52367 59.9303C4.82098 59.847 8.09452 60.5057 11.1021 61.8547C14.4748 63.3506 18.1332 64.0807 21.8196 63.9934C25.5097 64.0807 29.1721 63.3506 32.5452 61.8547C35.5648 60.5056 38.8422 59.8469 42.1435 59.9303C45.4487 59.847 48.7262 60.5057 51.7417 61.8547C55.1184 63.3506 58.7808 64.0807 62.4704 63.9934C63.3116 63.9934 63.994 63.3109 63.994 62.4697C63.994 61.6286 63.3116 60.9461 62.4704 60.9461C59.1691 61.0294 55.8876 60.3707 52.8721 59.0217C49.4994 57.5258 45.837 56.7957 42.1465 56.883C38.4564 56.7957 34.7901 57.5258 31.4179 59.0217C28.4022 60.3707 25.1209 61.0295 21.8196 60.9461C18.5223 61.0294 15.2487 60.3707 12.2372 59.0217C8.86844 57.5258 5.21002 56.7957 1.52377 56.883C0.682581 56.883 0 57.5655 0 58.4066Z" fill="#E8E8E8"/>
</svg>
