<svg width="64" height="64" viewBox="0 0 64 64" fill="none" xmlns="http://www.w3.org/2000/svg">
<path fill-rule="evenodd" clip-rule="evenodd" d="M0 56.372V7.67685C0 3.43627 3.4362 0 7.67685 0H25.6871C29.9222 0 33.3527 3.428 33.3639 7.65794H62.6292C63.3843 7.65794 63.9971 8.27077 63.9971 9.02584V62.6321C63.9971 63.3872 63.3843 64 62.6292 64H7.67685C3.46638 64 0.046225 60.6103 0 56.4107V56.372ZM7.67685 61.2638H25.6871C28.401 61.2638 30.6034 59.0778 30.6308 56.372V56.3474V56.3201V53.6252C30.6308 50.8949 28.4174 48.6815 25.6871 48.6815H7.67685C4.94649 48.6815 2.73316 50.8949 2.73316 53.6252V56.3201C2.73316 59.0504 4.94649 61.2638 7.67685 61.2638ZM25.0742 51.0536C25.9196 51.0536 26.7294 51.3902 27.3258 51.9866C27.9222 52.583 28.2587 53.3955 28.2587 54.2381V55.7073C28.2587 56.5527 27.9222 57.3625 27.3258 57.9589C26.7294 58.5553 25.9169 58.8918 25.0742 58.8918H8.28968C7.44432 58.8918 6.63447 58.5553 6.0381 57.9589C5.44169 57.3625 5.1052 56.5499 5.1052 55.7073V54.2381C5.1052 53.3928 5.44171 52.5829 6.0381 51.9866C6.63451 51.3901 7.44705 51.0536 8.28968 51.0536H25.0742ZM25.0742 53.7895H8.28968C8.1693 53.7895 8.05439 53.836 7.96958 53.9208C7.88477 54.0056 7.83826 54.1205 7.83826 54.2409V55.7101C7.83826 55.8304 7.88477 55.9454 7.96958 56.0302C8.05439 56.115 8.1693 56.1615 8.28968 56.1615H25.0742C25.1946 56.1615 25.3095 56.115 25.3943 56.0302C25.4791 55.9454 25.5257 55.8304 25.5257 55.7101V54.2409C25.5257 54.1205 25.4791 54.0056 25.3943 53.9208C25.3095 53.836 25.1946 53.7895 25.0742 53.7895ZM30.6308 47.7514V7.6793C30.6308 4.94894 28.4174 2.73561 25.6871 2.73561H7.67685C4.94649 2.73561 2.73316 4.94894 2.73316 7.6793V47.7514C4.06822 46.627 5.79458 45.9485 7.67685 45.9485H25.6871C27.5693 45.9485 29.2956 46.627 30.6308 47.7514ZM31.5637 61.2638H61.2639V10.3933H33.3664V56.3717V56.41C33.3446 58.2594 32.6717 59.9506 31.5637 61.2638Z" fill="#E8E8E8"/>
</svg>
