<svg width="64" height="64" viewBox="0 0 64 64" fill="none" xmlns="http://www.w3.org/2000/svg">
<path d="M64.0004 41.9234C63.6721 45.532 58.8791 44.2315 57.0735 42.431C55.8134 41.3629 54.6668 39.2921 53.2148 39.4588C52.1542 39.4588 51.6971 39.9234 50.6718 41.0724C48.7728 43.6558 45.086 45.075 42.0176 43.6861C43.3635 42.5422 44.6135 41.2189 45.3131 39.5648C45.9873 39.3982 46.4444 38.9259 47.25 38.0219C48.303 36.8477 49.7323 35.2416 52.3081 34.9259C56.5606 34.3729 58.447 37.3931 60.6184 39.4941L60.6361 39.3805C60.9442 39.5471 61.2674 39.6254 61.6967 39.6254C62.9644 39.6254 64.0004 40.6608 64.0004 41.9234ZM61.7024 54.7138C61.412 54.7138 61.1771 54.6785 60.9473 54.6078C60.7099 56.1432 60.0382 57.6027 59.0281 58.772C60.8311 59.6078 63.9195 59.6887 64.0003 57.0118C64.0003 55.7492 62.965 54.7138 61.7024 54.7138ZM56.1544 47.262C54.4852 45.9337 53.965 44.5398 55.2251 43.0801C54.6998 42.5397 53.4447 40.9942 53.2175 41.2139C52.9624 41.2139 52.9018 41.2139 51.9826 42.2392C51.379 42.9286 50.7098 43.6079 49.9825 44.1861C49.8563 45.9387 50.331 47.5978 51.4017 48.9387H51.4093C52.4422 50.4691 54.8336 51.5221 54.7149 53.2166C54.725 55.2898 51.6138 56.3631 50.6997 58.5903C49.6821 60.3606 49.3739 63.9212 52.2502 63.9995C53.5128 63.9995 54.5482 62.9742 54.5482 61.7116C54.5482 60.651 55.0129 60.1938 56.1518 59.1686C57.9321 57.6964 59.3488 55.7595 59.2983 53.2166C59.3185 50.2166 57.4701 48.3832 56.1544 47.262ZM39.864 43.4059H39.8715C41.0559 41.9286 43.1267 40.8251 43.8513 38.4791C45.1544 34.4766 42.8816 31.6938 40.5736 29.8248C39.2957 29.095 38.1695 27.9713 37.4953 27.1935C36.5483 26.1228 36.4776 26.1228 36.2326 26.1228C36.0836 26.037 35.6367 26.3981 34.8917 27.2794C34.6493 30.1355 36.2427 32.1633 37.6796 33.3981C38.7832 34.383 39.7125 35.1355 39.6266 36.2289C39.7428 37.3956 38.5559 38.282 37.47 39.2618C36.8286 39.8603 36.2377 40.532 35.7781 41.2946V41.4083C34.47 43.287 34.6392 46.2997 35.8135 48.2111C40.3716 48.0444 42.3719 50.7464 44.1949 52.6732C44.003 49.8676 42.3187 48.3676 41.0662 47.254C39.7707 46.1075 39.3212 45.5823 39.4979 44.2565L39.349 44.1605L39.8565 43.4054C39.8641 43.413 39.864 43.4059 39.864 43.4059ZM36.9448 56.7672C35.2983 58.0525 33.1695 63.6967 37.1645 63.9999C38.4271 63.9999 39.4625 62.9746 39.4625 61.7119C39.4625 60.924 39.7175 60.467 40.3211 59.8609C38.9751 59.0705 37.9726 57.896 36.9448 56.7672ZM51.9371 54.4439C52.9623 53.5322 52.9623 53.4616 52.9623 53.2166C53.0961 52.7798 50.9674 51.2444 50.4371 50.5247C48.336 51.3934 47.3865 53.3302 45.8865 54.3909L45.8789 54.5045C45.8461 54.5171 45.2224 54.6585 45.2123 54.6712C43.9092 54.8782 43.3259 54.4085 42.187 53.1105C39.5279 49.5271 34.2755 48.5978 30.8511 52.4792C31.0708 54.9742 30.1542 57.4894 28.4143 59.2749C31.1138 59.0375 32.5885 57.3987 33.6845 56.1713C34.8512 54.8607 35.3613 54.4112 36.682 54.5855L36.7527 54.5249L37.3057 54.8052C37.3133 54.8127 37.3234 54.8228 37.331 54.8228C38.8057 55.8001 39.9699 58.0703 42.1694 58.8304C44.4775 59.7497 47.3311 59.3481 49.2172 57.6385C49.9041 56.4011 50.8967 55.3581 51.9371 54.4439ZM25.9774 47.2622C25.0734 46.4567 24.6011 45.9996 24.4345 45.3254C22.7779 44.6334 21.4572 43.3784 20.3057 42.0375C19.4673 43.9769 19.6491 46.588 20.8234 48.333L21.1744 48.386V48.8683C22.2047 50.4315 24.6466 51.4744 24.5405 53.2169C24.5405 54.2245 24.1188 54.6891 22.937 55.7598C21.1163 57.2194 19.6971 59.3104 19.7905 61.7119C19.7905 62.9745 20.8157 63.9998 22.0784 63.9998C23.3411 63.9998 24.3764 62.9746 24.3764 61.7119C24.3764 61.2826 24.4724 60.9493 24.639 60.6412L24.5153 60.6235C26.4825 58.4013 29.0178 57.3962 29.1264 53.2143C29.235 50.5325 27.3234 48.3203 25.9774 47.2622ZM6.98737 64C8.24999 64 9.28537 62.9748 9.28537 61.7121C9.28537 61.4217 9.32073 61.1767 9.39143 60.9494C7.84346 60.7323 6.40151 60.0327 5.21718 59.0378C4.39144 60.8207 4.31312 63.9318 6.98737 64ZM22.7858 53.2169C22.7858 52.9719 22.7858 52.9012 21.7606 51.9795C21.0636 51.381 20.3843 50.7143 19.8136 49.9794C17.2807 49.6991 14.8792 51.1183 13.3868 53.0123C12.3943 54.1335 11.8338 54.7421 10.7731 54.7143C9.72006 54.7143 9.26553 54.2497 8.24023 53.1107C7.59124 52.3658 6.6973 51.3582 5.39175 50.6915C3.58616 49.6864 0.101302 49.3657 0.00032325 52.2597C0.00032325 53.5223 1.02556 54.5476 2.28824 54.5476C3.34884 54.5476 3.80596 55.0123 4.82111 56.1512C6.24535 57.9391 8.3489 59.3583 10.7302 59.2977V59.2901C13.657 59.3709 15.5813 57.5048 16.7101 56.1765C18.051 54.4744 19.4348 53.9492 20.9096 55.2295C21.4323 54.7093 23.0156 53.4442 22.7858 53.2169ZM2.28818 39.4594C3.0761 39.4594 3.53315 39.7144 4.12913 40.3179C4.93218 38.9947 6.11903 37.9644 7.2327 36.9416C5.96252 35.2976 0.298023 33.1689 0 37.1638C0 38.4265 1.02549 39.4594 2.28818 39.4594ZM16.7103 41.0831C17.877 39.7573 18.4022 39.3103 19.7532 39.5048L19.8845 39.3028C20.6572 39.9189 20.9628 40.1235 21.7961 41.073C25.18 45.4543 30.6799 45.0478 33.6854 41.0831C34.597 40.0907 35.1727 38.9114 36.2106 38.0503C36.501 37.7548 37.751 36.7144 37.8419 36.4594C37.8772 36.3811 37.8772 36.318 37.8772 36.2371C37.9656 36.0831 37.5843 35.6311 36.7106 34.8962C33.7383 34.669 31.7686 36.2725 30.3014 37.9998C29.2584 39.1665 28.8014 39.6311 27.7509 39.6311C25.6347 39.616 24.7306 36.7043 22.5438 35.6942C20.5791 34.5604 17.7078 34.6134 15.7759 35.8079C15.9779 40.3685 13.2354 42.396 11.3213 44.1971C14.0991 44.0027 15.5967 42.3281 16.7103 41.0831ZM5.16497 42.169C4.25843 44.4796 4.65992 47.3206 6.3493 49.2097C7.57908 49.9016 8.65991 50.8915 9.55889 51.9446C10.4705 52.9622 10.5412 52.9622 10.7786 52.9622C11.016 52.9622 11.0867 52.9622 11.9983 51.937C12.473 51.4269 12.9326 50.9143 13.4705 50.4294C12.6119 48.341 10.6548 47.3763 9.61184 45.889L9.4982 45.8814L9.34921 45.2754C9.09416 43.9597 9.57901 43.3385 10.8921 42.1895C12.2255 41.0153 14.0386 39.3941 14.0386 36.2375C14.1043 34.0178 12.9098 32.0884 11.5134 30.846C9.01589 31.091 6.50326 30.1617 4.72805 28.4167C4.96543 31.1264 6.6043 32.5986 7.83162 33.6946C9.33163 34.9825 9.84428 35.778 9.19025 37.3335C8.18266 38.8385 6.01094 39.8886 5.16497 42.169ZM2.2887 24.3736C2.71799 24.3736 3.05134 24.462 3.35938 24.6287L3.37706 24.5125C5.55637 26.6009 7.41749 29.6464 11.7055 29.0631C14.2384 28.755 15.6601 27.1691 16.7031 26.0125C17.5364 25.0756 17.991 24.5933 18.6753 24.4342C19.3622 22.7751 20.6172 21.467 21.9531 20.313C18.9278 18.9216 15.2182 20.3508 13.3518 22.8736C12.2811 24.0756 11.8265 24.5402 10.7735 24.5402C9.72048 24.5402 9.26594 24.0756 8.24064 22.9367C6.78104 21.1235 4.69262 19.6993 2.2886 19.7902C1.02598 19.7876 0.000674937 20.8129 0.000674937 22.0756C0.000674937 23.3382 1.02601 24.3736 2.2887 24.3736ZM24.1019 20.621C23.8746 20.9367 23.5135 21.2776 22.9276 21.7953C21.3797 23.0049 19.6397 25.3408 19.7887 27.7473C19.7887 30.8863 21.5943 32.5075 22.9175 33.6918C23.6498 34.4166 24.5437 34.8307 25.266 35.5429C25.9579 36.0959 27.3316 38.0226 27.7458 37.8737C27.915 37.9671 28.3594 37.5505 29.1044 36.6994C29.112 36.5505 29.1221 36.3914 29.1221 36.2348C29.1044 33.2853 27.6095 31.7449 25.9655 30.265C24.8342 29.2575 24.3695 28.8004 24.3695 27.7499C24.372 25.6438 27.3594 24.6792 28.3241 22.5074C29.4428 20.5377 29.3796 17.6993 28.1928 15.7828C23.6473 15.9697 21.5891 13.2652 19.8035 11.3383C20.0055 14.1086 21.6697 15.6086 22.9147 16.7222C24.2329 17.8889 24.7025 18.4167 24.4829 19.7551L24.6495 19.8611L24.1066 20.6162C24.1091 20.6111 24.1019 20.6109 24.1019 20.621ZM48.221 28.177C48.0493 23.6416 50.7362 21.5959 52.6655 19.8033C49.87 20.0053 48.37 21.6795 47.2639 22.932C46.1124 24.2325 45.572 24.6897 44.2386 24.4927L44.1149 24.677C43.3169 24.0735 43.0416 23.9043 42.1856 22.9245C38.784 18.533 33.2966 18.9548 30.2892 22.9144C29.173 24.2604 28.5569 25.3942 27.1427 26.518C26.1251 27.4296 26.1251 27.5003 26.1251 27.7452C26.1251 27.9826 26.1251 28.0533 27.1427 28.9649C27.1958 29.0179 27.2488 29.0609 27.3018 29.1139C30.3877 29.3109 32.2943 27.6392 33.6832 25.9927C35.4559 23.8008 37.0191 23.7881 38.7691 25.9826C40.9231 28.8412 44.9408 30.1922 48.221 28.177ZM61.7031 24.5406C60.9127 24.5406 60.4657 24.278 59.8622 23.6719C59.0617 25.0077 57.8723 26.0178 56.7511 27.0482C58.049 28.6972 63.6877 30.8386 64.0012 26.8386C64.0012 25.5734 62.9658 24.5406 61.7031 24.5406ZM54.8144 26.6517C55.8346 25.1441 58.0265 24.0507 58.8295 21.8208C59.7386 19.4975 59.3573 16.7071 57.6729 14.7982C56.6779 14.2553 55.8093 13.528 55.0517 12.72C54.8295 12.4902 54.6325 12.2654 54.4456 12.0634C53.534 11.0382 53.4633 11.0382 53.2184 11.0382C52.7739 10.9043 51.2133 13.0659 50.5365 13.5533C51.4002 15.6493 53.3497 16.619 54.4028 18.1114L54.5517 18.119C54.9558 19.7327 54.6856 20.4903 53.1048 21.7933C49.5264 24.4474 48.5971 29.7352 52.4987 33.1466C54.9886 32.9218 57.4937 33.8511 59.2763 35.5835C59.049 32.8663 57.4 31.3915 56.1727 30.288C54.8646 29.1289 54.4151 28.6263 54.5868 27.3081L54.4985 27.2197C54.5086 27.2071 54.7964 26.6667 54.8141 26.6591L54.8144 26.6517ZM58.7765 4.96975C59.1275 4.14653 59.3018 3.26016 59.3018 2.28793C59.3018 1.02531 58.2765 1.22919e-05 57.0138 1.22919e-05C55.7437 1.22919e-05 54.7158 1.02525 54.7158 2.28793C54.7158 2.57834 54.6805 2.82329 54.6022 3.05057C55.8118 3.22734 56.9482 3.68947 57.9608 4.34856C58.2588 4.5531 58.5114 4.75005 58.7765 4.96975ZM41.2158 10.7754C41.2158 11.0127 41.2158 11.0835 42.2335 12.0026C42.9355 12.6087 43.6173 13.2855 44.1982 14.0203C46.5845 14.2577 48.8447 13.0582 50.3169 11.293C52.1755 8.99751 53.6704 8.34096 55.7538 10.889C56.524 11.7753 57.4028 12.6364 58.4458 13.2223H58.6124C59.4256 13.8864 60.5695 13.99 61.7085 14.038C62.9711 14.038 64.0065 13.0026 64.0065 11.74C64.0065 10.4773 62.9711 9.45205 61.7085 9.45205C60.6554 9.45205 60.2009 8.9874 59.1756 7.84848C58.9306 7.5707 58.6958 7.30049 58.4054 7.01511V7.00754C55.1579 3.43431 49.923 4.26256 47.2615 7.84847C45.9458 9.52017 44.5444 10.0379 43.0898 8.77777C42.557 9.28282 40.9936 10.5658 41.2158 10.7754ZM34.9304 11.687C35.2385 14.23 36.8319 15.6593 37.991 16.7098C38.9203 17.533 39.4102 17.9977 39.5693 18.6745C41.2108 19.3739 42.5314 20.6315 43.6805 21.9623C44.5795 19.9068 44.3471 17.1567 43.0062 15.3612V15.3537C41.9961 13.6895 39.3648 12.5582 39.4632 10.7779C39.4632 9.72484 39.9279 9.27031 41.0668 8.24501C42.8926 6.76265 44.2991 4.69951 44.2133 2.29296C44.2133 1.0253 43.1881 0 41.9254 0C40.6552 0 39.6274 1.02524 39.6274 2.28792C39.6274 2.71722 39.539 3.043 39.3723 3.34852L39.5062 3.3763C37.39 5.53286 34.3798 7.40448 34.9304 11.687ZM27.0467 7.24254C28.1426 6.10366 29.1249 4.60365 29.1249 2.28793C29.0441 -0.724745 24.6173 -0.732309 24.539 2.28793C24.539 3.07585 24.2764 3.5329 23.6703 4.13897C25.0112 4.93445 26.0113 6.13391 27.0467 7.24254ZM2.28883 9.28552C2.57923 9.28552 2.82419 9.32087 3.0439 9.39915C3.27623 7.84614 3.96564 6.40167 4.96314 5.21727C3.18031 4.38901 0.0691723 4.31324 0.000969711 6.9875C0.000969711 8.25012 1.02614 9.28552 2.28883 9.28552ZM12.0563 9.55572C11.0387 10.4674 11.0387 10.538 11.0387 10.7754C10.9099 11.2224 13.0968 12.7906 13.5639 13.4749C15.6422 12.6138 16.6447 10.6214 18.1145 9.58352L18.122 9.4421C18.1321 9.432 18.7887 9.34109 18.7887 9.31836C20.0993 9.14159 20.6523 9.58604 21.7862 10.8866C24.3821 14.4598 29.7785 15.4043 33.1472 11.4926C32.9174 9.01032 33.8442 6.50266 35.5765 4.72474C32.8669 4.95202 31.3947 6.60099 30.2911 7.82831C29.1345 9.13638 28.6245 9.58846 27.3113 9.41417L27.2229 9.49245C27.2103 9.48235 26.6648 9.19952 26.6623 9.18437C25.137 8.18939 24.0663 5.96211 21.8239 5.16921C19.4955 4.25756 16.6975 4.649 14.7935 6.33589C14.1041 7.58339 13.1119 8.64155 12.0563 9.55572ZM4.99818 12.7906C5.55879 14.6492 6.82142 15.8159 7.81136 16.7098C9.53362 18.0735 10.0386 19.4194 8.76594 20.9169C9.04624 21.2073 9.30635 21.4775 9.54622 21.7578C10.468 22.7831 10.5361 22.7831 10.7735 22.7831C11.0109 22.7831 11.0816 22.7831 11.9932 21.7578C12.6169 21.071 13.2735 20.374 14.0184 19.8033C14.1447 18.0558 13.675 16.4043 12.6068 15.0684C11.5866 13.5634 9.18 12.4725 9.28356 10.773C9.28356 9.71992 9.74821 9.26539 10.8871 8.24009C11.6776 7.53809 12.6574 6.6618 13.3164 5.38147C14.3013 3.56075 14.6372 0.106143 11.7407 0.000122187C10.478 0.000122187 9.45274 1.02536 9.45274 2.28804C9.59921 3.56586 8.05883 4.57596 6.99816 5.61129C5.82896 6.60116 4.54106 8.83103 4.70016 10.9674L4.99818 12.7906Z" fill="#E8E8E8"/>
</svg>
