<svg width="65" height="65" viewBox="0 0 65 65" fill="none" xmlns="http://www.w3.org/2000/svg">
<mask id="path-1-outside-1_109_393" maskUnits="userSpaceOnUse" x="-0.5" y="-0.5" width="66" height="66" fill="black">
<rect fill="white" x="-0.5" y="-0.5" width="66" height="66"/>
<path d="M64.4993 27.5731C64.4993 25.558 62.8604 23.9166 60.8453 23.9166C60.5499 23.9166 60.4564 23.9065 59.5928 22.9494C60.2898 20.9545 60.1256 18.4823 59.1256 16.6439C61.6534 17.3712 64.4867 16.0379 64.5019 13.1667C64.5019 11.1566 62.863 9.52024 60.8479 9.52024C60.5423 9.52024 60.459 9.52024 59.5246 8.47226C59.3756 8.30307 59.214 8.13641 59.0524 7.96469C60.6989 5.15918 60.4337 0.659029 56.3681 0.5C54.353 0.5 52.7116 2.13632 52.7116 4.14643C52.7116 4.40148 52.704 4.50501 52.1661 5.02019C48.8859 5.23988 47.0652 7.24744 45.9692 8.47216C45.0349 9.51762 44.9591 9.51762 44.6384 9.51762C44.4086 9.51762 44.3 9.51004 43.9011 9.106C46.2369 6.41918 46.6284 0.691663 41.9693 0.50031C39.9541 0.50031 38.3127 2.13663 38.3127 4.14674C38.3127 4.41189 38.3077 4.51542 37.7117 5.06846C34.631 4.47756 31.5123 6.36643 30.3156 7.87145C31.8585 5.17953 31.6565 0.656948 27.5656 0.500504C25.5555 0.500504 23.9166 2.13683 23.9166 4.14693C23.9166 4.45501 23.9065 4.54592 22.9495 5.40702C20.952 4.71007 18.4747 4.87419 16.6364 5.87924C17.3763 3.35144 16.0455 0.518133 13.1667 0.500485C11.1566 0.500485 9.51775 2.13681 9.51775 4.14691C9.51775 4.46762 9.51775 4.54338 8.46977 5.48024C8.30058 5.63176 8.12887 5.79337 7.95715 5.95499C5.17433 4.29843 0.654078 4.56613 0.50022 8.63173C0.50022 10.6469 2.13654 12.2882 4.14917 12.2882C4.41179 12.2882 4.51028 12.2958 5.02797 12.8413C5.23756 16.0837 7.15677 17.8362 8.4749 19.0231C9.52036 19.9574 9.52036 20.0382 9.52036 20.3463C9.52036 20.5786 9.51278 20.6872 9.10117 21.0937C6.41687 18.7604 0.686827 18.3791 0.5 23.0306C0.5 25.0457 2.13632 26.6871 4.14895 26.6871C4.41157 26.6871 4.51511 26.6922 5.07067 27.2881C4.47724 30.3916 6.404 33.5103 7.90651 34.7024C5.2222 33.1469 0.659029 33.3236 0.5 37.4271C0.5 39.4422 2.13632 41.0836 4.14895 41.0836C4.45955 41.0836 4.54794 41.0912 5.40147 42.0432C4.7146 44.0381 4.87875 46.5306 5.88631 48.3639C3.35348 47.624 0.517648 48.9548 0.5 51.8335C0.5 53.8436 2.13632 55.48 4.14895 55.48C4.46965 55.48 4.54541 55.48 5.47471 56.5204C5.61865 56.687 5.78027 56.8638 5.95198 57.0456C4.30299 59.8385 4.56817 64.3435 8.63124 64.5C10.6464 64.5 12.2878 62.8637 12.2878 60.8535C12.2878 60.5935 12.2953 60.4924 12.8181 59.9899C16.0832 59.793 17.8332 57.8511 19.0226 56.5278C19.9468 55.4849 20.0327 55.4849 20.3433 55.4849C20.5756 55.4849 20.6817 55.4925 21.0882 55.9066C18.7625 58.5833 18.3787 64.3132 23.0301 64.5C25.0453 64.5 26.6866 62.8637 26.6866 60.8536C26.6866 60.5884 26.6917 60.4849 27.2877 59.9319C30.3912 60.5253 33.5098 58.5985 34.7019 57.096C33.1464 59.7778 33.3231 64.3409 37.4292 64.4999C39.4444 64.4999 41.0857 62.8636 41.0857 60.8535C41.0857 60.5454 41.0958 60.4545 42.0504 59.5934C44.0251 60.2904 46.5428 60.1187 48.366 59.1111C47.6261 61.6389 48.9493 64.4823 51.8281 64.4999C53.8432 64.4999 55.4846 62.8636 55.4846 60.8535C55.4846 60.5328 55.4846 60.4571 56.5326 59.5202C56.6917 59.3762 56.871 59.2045 57.0452 59.0429C59.8255 60.7045 64.3457 60.4267 64.4996 56.3687C64.4996 54.3536 62.8606 52.7122 60.8456 52.7122C60.5956 52.7122 60.4946 52.7046 59.982 52.1642C59.7623 48.8814 57.7522 47.0607 56.53 45.9698C55.4845 45.0355 55.4845 44.9597 55.4845 44.639C55.4845 44.4092 55.4921 44.3006 55.8961 43.9067C58.5931 46.24 64.3105 46.6213 64.5018 41.9698C64.5018 39.9547 62.8629 38.3133 60.8478 38.3133C60.5903 38.3133 60.4893 38.3083 59.9337 37.7123C60.5246 34.6315 58.6332 31.5129 57.1307 30.3162C59.815 31.8616 64.3426 31.6495 64.4991 27.5737L64.4993 27.5731ZM53.9665 4.14666C53.9665 2.82846 55.0423 1.75527 56.368 1.75527C59.219 1.84366 59.0927 5.16936 58.1306 7.04817C56.9261 5.95727 55.3983 5.24009 53.7721 5.04563C53.911 4.77796 53.9665 4.50523 53.9665 4.14666ZM44.6381 10.7729C45.5497 10.7729 45.931 10.3966 46.9057 9.30575C49.8376 5.44463 55.2289 5.04059 58.502 9.21484C59.4363 10.2754 59.9439 10.8032 60.8429 10.7704C62.1661 10.7704 63.2443 11.8436 63.2443 13.1643C63.2443 14.4875 62.1686 15.5657 60.8429 15.5657C59.7242 15.5304 58.6333 15.3915 57.7975 14.788C56.7116 14.4067 55.7672 13.2981 55.0096 12.495C53.3303 10.4849 52.1283 10.5052 50.4743 12.495C49.0172 14.3713 46.5551 15.8662 44.0248 15.5405C43.4667 14.8157 42.8026 14.1693 42.1233 13.5657C41.0778 12.6314 41.0778 12.5481 41.0778 12.2425C40.8455 11.9066 42.5147 10.6162 43.0652 10.0455C43.6258 10.5986 43.9916 10.7729 44.6381 10.7729ZM43.5396 31.1468C45.2037 31.374 46.9739 31.0761 48.383 30.2932C48.7467 31.9195 49.58 33.119 50.4966 34.0912C47.9058 34.8664 46.777 36.417 45.5295 37.7477C45.9967 35.2326 44.8224 32.4195 43.5396 31.1468ZM39.8048 44.0482L39.8907 44.1037C39.6659 45.3411 40.022 45.7831 41.2947 46.9067C42.5801 48.0506 44.3351 49.6163 44.3629 52.6694C43.9336 52.4219 43.6659 52.0254 43.3023 51.6517C42.1988 50.2881 39.6028 47.8739 36.027 48.1971C34.7973 46.2855 34.6382 43.3259 35.8957 41.4041V41.3157C36.4664 40.3561 37.2745 39.5304 38.1028 38.8107C39.1912 37.8385 39.5674 37.4546 39.5674 36.5456C39.6684 35.6188 38.7669 34.8688 37.7543 33.9723C36.2366 32.6592 34.8048 30.6188 35.0548 27.9218C35.8048 27.0405 36.2947 26.5936 36.5397 26.6921C36.8528 26.6921 36.9361 26.6921 37.8932 27.7704C38.1331 28.038 38.4185 28.3411 38.7266 28.6492C39.4286 29.4749 40.474 29.9522 41.3099 30.7198C45.1685 33.6466 45.5877 39.0683 41.2948 42.3839C40.4438 43.1238 40.2619 43.3563 39.8048 44.0482ZM48.1836 44.8159C48.2114 46.3361 48.6104 47.6795 49.3907 48.8941C47.5397 49.7704 46.6256 50.9698 45.5927 52.0785C45.3478 48.8386 43.3503 47.0583 42.1281 45.9699C41.2771 45.2098 41.1205 45.0154 41.0902 44.7982C43.1987 45.879 46.0875 45.8941 48.1836 44.8159ZM34.7017 48.384C33.0754 48.7476 31.8734 49.5734 30.9012 50.485C30.131 47.9092 28.5805 46.7779 27.2522 45.5305C29.7825 45.9951 32.583 44.8082 33.8558 43.5204C33.6235 45.1895 33.9214 46.9623 34.7017 48.384ZM34.2673 41.3111C31.3204 45.1924 25.9112 45.5636 22.6032 41.2959C21.8633 40.4575 21.6436 40.2909 20.9896 39.7807L20.9138 39.8969C19.6563 39.6595 19.2093 40.0105 18.073 41.3085C16.9265 42.5863 15.3609 44.3312 12.3331 44.3641C12.3356 44.359 12.3356 44.3565 12.3381 44.3515C12.5881 43.9348 12.9669 43.6722 13.3356 43.3186C14.7068 42.2227 17.1386 39.6115 16.8078 36.0207C20.0275 33.9727 24.0954 35.2859 26.1789 38.1066C27.1512 39.195 27.535 39.5712 28.4466 39.5712C29.3582 39.6722 30.1132 38.7909 31.0173 37.7606C32.3254 36.2379 34.3809 34.801 37.088 35.0586C37.1536 35.1167 37.2142 35.1722 37.2723 35.2202C38.3178 36.1545 38.3178 36.2378 38.3178 36.5434C38.54 36.9778 36.5172 38.4475 36.0072 39.0838C35.3228 39.7833 34.9668 40.5964 34.2673 41.3111ZM20.1964 48.1849C18.6813 48.2101 17.3328 48.6016 16.1005 49.3819C15.2369 47.5486 14.0324 46.6269 12.9187 45.594C16.1359 45.3465 17.9137 43.3617 19.0222 42.1294C19.8 41.2531 19.9843 41.1142 20.2065 41.0915C19.1106 43.1723 19.1081 46.0988 20.1964 48.1849ZM21.4793 33.8593C19.8076 33.6219 18.0273 33.9174 16.6081 34.7002C16.2167 32.9679 15.3101 31.7305 14.5222 30.8972C17.0676 30.127 18.2141 28.5841 19.4691 27.2407C19.0019 29.771 20.1889 32.5868 21.4793 33.8593ZM25.1889 20.9728L25.103 20.9172C25.3454 19.6622 24.9919 19.2253 23.6914 18.0738C22.4161 16.9274 20.6737 15.3642 20.6384 12.3415C22.7343 14.2228 24.3404 17.0662 28.9816 16.8087C30.219 18.7203 30.3048 21.5511 29.1786 23.5383C27.6987 26.4853 23.0119 27.5611 26.9109 30.7173C28.6154 32.1617 30.1987 34.1441 29.9462 37.0758C28.5826 38.5531 28.5144 38.8864 27.1154 37.2728C26.2089 36.0834 24.9235 35.2905 23.6912 34.2703C19.8276 31.3309 19.416 25.9471 23.7064 22.6062C24.5144 21.8991 24.7242 21.6369 25.1889 20.9728ZM16.8153 20.1798C16.7875 18.6621 16.3935 17.3187 15.6132 16.1041C17.4567 15.2227 18.3783 14.0232 19.4036 12.9071C19.646 16.1319 21.6334 17.9147 22.8683 19.0232C23.7546 19.8162 23.8884 19.9954 23.9087 20.2177C21.8102 19.1217 18.9291 19.1065 16.8153 20.1798ZM29.1711 31.1871C31.315 31.0078 32.8049 30.0583 33.8125 29.172C33.9943 31.3234 34.9488 32.8184 35.8377 33.8234C33.8024 33.985 32.3327 34.8209 31.1761 35.8386C31.0145 33.8108 30.1837 32.3437 29.1711 31.1871ZM48.1964 28.9674C46.2974 30.2149 43.4667 30.3033 41.479 29.1947C38.5296 27.7527 37.4311 22.9952 34.2723 26.9093C32.8354 28.6113 30.8556 30.1845 27.9339 29.9497C27.8683 29.8916 27.8077 29.836 27.7319 29.7653C26.6865 28.831 26.6865 28.7477 26.6865 28.4421C26.4642 28.0027 28.4768 26.5557 28.9895 25.9093C29.6688 25.2174 30.0223 24.3967 30.7168 23.6896C32.1966 21.7173 35.3329 19.7855 38.7419 20.98C41.05 21.7325 42.103 23.6366 43.4742 24.8007C43.4969 24.8184 43.9919 25.1947 44.0121 25.2098L44.0803 25.1063C45.3278 25.3436 45.7772 24.9876 46.906 23.7073C48.0499 22.4244 49.6131 20.6694 52.661 20.6391C50.7848 22.73 47.9363 24.3638 48.1964 28.9674ZM30.305 16.6142C31.9287 16.2455 33.1257 15.4147 34.0928 14.5006C34.8605 17.0586 36.4135 18.2076 37.757 19.4702C35.2368 19.0031 32.4212 20.1722 31.1437 21.4626C31.376 19.801 31.0828 18.0283 30.305 16.6142ZM45.9687 22.8717C45.1884 23.7455 45.0066 23.8869 44.7819 23.9096C45.8803 21.8061 45.893 18.9299 44.8198 16.8134C46.3323 16.7831 47.6758 16.3867 48.9005 15.6038C49.7718 17.4548 50.9763 18.3715 52.0874 19.4043C48.8425 19.6493 47.0596 21.647 45.9687 22.8717ZM38.1077 6.4096C38.5295 6.03587 38.936 5.63941 39.2163 5.3187L39.1986 5.31617C39.4688 4.95506 39.5698 4.62678 39.5698 4.14698C39.5698 2.82878 40.6456 1.75559 41.9713 1.75559C43.2895 1.75559 44.3652 2.82885 44.3652 4.14698C44.4536 6.50049 43.0698 8.54343 41.2945 9.98789C40.2061 10.9601 39.8299 11.3414 39.8299 12.2455C39.8299 13.1495 40.2062 13.5308 41.3501 14.5535C43.9435 16.4701 45.2743 20.2707 43.7062 23.2956C42.5344 21.9572 41.2365 20.6012 39.537 19.9371C39.4259 19.2982 39.0092 18.8941 38.0749 18.0583C33.9057 14.8109 34.1254 9.44021 38.1077 6.4096ZM25.1708 4.14698C25.1708 2.82879 26.244 1.7556 27.5647 1.7556C31.749 2.08892 29.5445 7.85153 27.7743 9.17503C26.6733 8.02608 25.6531 6.73567 24.2087 5.95785C24.9132 5.29374 25.1708 4.90205 25.1708 4.14698ZM15.916 7.88179C17.7948 6.19239 20.5574 5.80354 22.8629 6.70503C25.2467 7.55855 26.1053 9.85149 27.9083 10.7707L27.9538 10.7278C29.1684 10.9121 29.58 10.5712 30.7113 9.29339C31.8552 8.01812 33.4184 6.27823 36.4386 6.24035C34.5851 7.94992 33.5446 10.4777 33.8073 13.0107C30.4765 16.8971 25.2165 16.0461 22.6003 12.4981C21.3957 11.0764 20.8452 10.8416 19.4513 11.1547L19.4437 11.238C17.9588 12.233 17.0195 14.2304 14.8477 15.0739C14.373 14.531 13.8503 14.036 13.3326 13.5714C12.2871 12.637 12.2871 12.5537 12.2871 12.2481C12.2871 11.9426 12.2871 11.8592 13.3326 10.9249C13.5952 10.69 13.9159 10.4072 14.1836 10.1269C14.8679 9.47792 15.4413 8.70505 15.916 7.88179ZM4.1485 11.0333C2.8303 11.0333 1.75459 9.95499 1.75459 8.63181C1.83792 5.78337 5.17883 5.90711 7.04245 6.87169C5.94902 8.07372 5.23688 9.6015 5.04242 11.2277C4.77727 11.0889 4.50202 11.0333 4.1485 11.0333ZM9.28482 18.0635C8.34293 17.2151 7.14342 16.1242 6.57777 14.3843L6.24949 12.4575C6.0904 9.77824 7.6889 7.74034 9.31262 6.41458C10.401 5.44236 10.7772 5.06102 10.7772 4.14944C10.7772 2.83124 11.8505 1.75805 13.1711 1.75805C16.108 1.85653 15.8908 5.32115 14.8631 7.20248C14.2217 8.45248 13.2697 9.306 12.502 9.99035C10.4364 11.6823 10.5601 12.9247 12.5828 14.5787C14.4515 16.0737 15.858 18.4424 15.5474 20.9726C14.8227 21.5307 14.1737 22.1948 13.5727 22.8741C12.6383 23.9196 12.555 23.9196 12.2494 23.9196C11.9439 23.9196 11.8631 23.9196 10.9262 22.8716C10.6484 22.561 10.3454 22.2327 10.0449 21.9247C11.3479 20.5686 10.8985 19.3717 9.28482 18.0635ZM5.32021 25.7933L5.31768 25.8034C4.95658 25.5307 4.6283 25.4297 4.14597 25.4297C2.82777 25.4297 1.75206 24.3539 1.75206 23.0282C1.75206 21.71 2.82532 20.6343 4.14597 20.6343C6.50704 20.5434 8.54243 21.9348 9.98688 23.705C10.9591 24.7933 11.343 25.1696 12.2444 25.1696C13.1459 25.1696 13.5298 24.7933 14.55 23.6519C16.4768 21.0459 20.2772 19.7352 23.285 21.2857C21.9441 22.4574 20.6007 23.7604 19.934 25.4599C19.2875 25.571 18.886 25.9877 18.0578 26.922C14.7926 31.1013 9.42168 30.8665 6.3859 26.8639C6.01973 26.4574 5.6232 26.0382 5.32021 25.7933ZM6.23941 28.5559C7.95654 30.4094 10.4818 31.4624 13.0273 31.1821C16.9211 34.5356 16.0197 39.7807 12.497 42.3814C11.0853 43.5809 10.7924 44.1743 11.1939 45.5506L11.2445 45.5556C12.2242 47.0076 14.2798 48.0253 15.0677 50.1465C14.5273 50.6263 14.0323 51.1491 13.5702 51.6693C12.6359 52.7147 12.5526 52.7147 12.247 52.7147C11.9414 52.7147 11.8606 52.7147 10.9288 51.6718C10.3253 50.9698 9.61059 50.2627 8.84796 49.692C6.24446 48.3132 5.72678 44.6744 6.69899 42.1316C7.53739 39.8463 9.67375 38.9119 10.6257 37.3463C11.0373 36.0281 10.6636 35.4524 9.29492 34.2681C8.01965 33.1267 6.28234 31.5659 6.23941 28.5559ZM4.1485 39.8289C2.8303 39.8289 1.75459 38.7531 1.75459 37.4274C2.09044 33.2557 7.85304 35.4577 9.16885 37.2203C8.01479 38.3112 6.73706 39.3491 5.95419 40.7859C5.2926 40.084 4.89852 39.8289 4.1485 39.8289ZM11.032 60.8537C11.032 62.1719 9.95624 63.2451 8.63054 63.2451C5.77952 63.1593 5.90836 59.8284 6.86538 57.9573C8.06993 59.0482 9.59771 59.7628 11.2239 59.9573C11.0901 60.2224 11.032 60.4977 11.032 60.8537ZM20.3449 54.2275C19.4308 54.2275 19.0495 54.6038 18.0647 55.7149C16.9687 56.9876 15.191 58.7755 12.3122 58.7527L12.3046 58.7603C9.81472 58.8335 7.85516 57.4598 6.41323 55.6921C5.44102 54.6037 5.05715 54.2275 4.1481 54.2275C0.994078 54.1467 0.994078 49.5179 4.1481 49.4346C6.45364 49.2831 8.82738 50.975 9.989 52.5053C10.9612 53.5937 11.3451 53.9699 12.2466 53.9699C13.1455 54.0002 13.6431 53.485 14.5799 52.4245C16.1026 50.5129 18.4511 49.1618 20.9839 49.4599C21.5369 50.177 22.1935 50.8311 22.8728 51.4169C23.9182 52.3512 23.9182 52.427 23.9182 52.7477C24.1506 53.0962 22.4763 54.384 21.9233 54.9598C21.3602 54.4043 20.9914 54.2275 20.3449 54.2275ZM26.8904 58.5911C26.4712 58.9648 26.0621 59.3588 25.7868 59.677L25.8045 59.6795C25.5318 60.0406 25.4308 60.3689 25.4308 60.8537C25.4308 62.1719 24.355 63.2451 23.0293 63.2451C21.7111 63.2451 20.6354 62.1719 20.6354 60.8537C20.5546 58.5053 21.9359 56.4472 23.7061 55.0128C24.8121 54.023 25.1707 53.629 25.1707 52.7477C25.2642 51.1896 22.893 50.1391 21.9586 48.6694V48.3184L21.7086 48.2856C20.4409 46.4649 20.2894 43.6947 21.2843 41.7124C22.4561 43.0558 23.7616 44.4068 25.4636 45.0684C25.5797 45.7022 25.9914 46.1038 26.8954 46.9093C31.0746 50.1467 30.8954 55.5256 26.8904 58.5911ZM39.8273 60.8537C39.8273 62.1719 38.7516 63.2451 37.4259 63.2451C33.2567 62.9118 35.4536 57.1517 37.2163 55.836C38.3097 56.9926 39.3425 58.2703 40.7869 59.0456C40.0849 59.7072 39.8273 60.0987 39.8273 60.8537ZM49.0976 57.0962C47.234 58.7956 44.4158 59.2098 42.1307 58.2957C39.7241 57.4548 38.8479 55.1088 37.0726 54.2477L37.0373 54.2806C35.8075 54.0836 35.406 54.4295 34.2645 55.7098C33.1232 56.9826 31.5625 58.7199 28.55 58.7629C30.4035 57.0482 31.4565 54.5079 31.1812 51.9724C34.5247 48.1164 39.7391 48.9598 42.378 52.5053C43.58 53.9169 44.1683 54.2073 45.5446 53.8108L45.5496 53.7603C47.0143 52.7678 47.9789 50.7679 50.1531 49.932C50.6632 50.6794 52.8728 52.2022 52.7087 52.7502C52.7087 53.0633 52.7087 53.1466 51.6632 54.081C51.4183 54.3032 51.1127 54.5658 50.8602 54.831C50.1683 55.48 49.5774 56.2603 49.0976 57.0962ZM60.8451 53.9674C62.1683 53.9674 63.2466 55.0432 63.2466 56.3689C63.1632 59.2123 59.8223 59.0987 57.9562 58.129C59.0471 56.9245 59.7617 55.3992 59.9562 53.7755C60.2188 53.9119 60.4915 53.9674 60.8451 53.9674ZM55.691 46.9068C59.5092 49.7957 60.037 55.217 55.691 58.5883C54.6027 59.5605 54.2264 59.9419 54.2264 60.8535C54.2264 62.1717 53.1506 63.2449 51.8249 63.2449C48.8855 63.1489 49.1078 59.6388 50.1583 57.7752C50.7921 56.5403 51.7416 55.6919 52.5017 55.0126C54.5194 53.3283 54.4891 52.1237 52.4765 50.4571C50.5926 48.9773 49.1406 46.5657 49.4563 44.0203C50.1709 43.4647 50.8275 42.8006 51.4158 42.1288C52.3502 41.0834 52.4259 41.0834 52.7466 41.0834C53.0951 40.8511 54.3754 42.5152 54.9537 43.0707C53.6583 44.4141 54.1027 45.6214 55.691 46.9068ZM59.6784 39.2152L59.6809 39.1975C60.042 39.4677 60.3678 39.5687 60.8451 39.5687C62.1683 39.5687 63.2466 40.6445 63.2466 41.9702C63.2466 43.2884 62.1708 44.3641 60.8451 44.3641C58.5143 44.4651 56.4208 43.0434 55.0143 41.2934C54.0245 40.1874 53.6305 39.8288 52.7467 39.8288C51.7871 39.7101 50.9588 40.748 50.0775 41.7429C48.1911 44.1368 44.4892 45.1419 41.6961 43.7151C43.0395 42.5409 44.4007 41.2454 45.0597 39.5384C45.6986 39.4248 46.0976 39.0131 46.9082 38.1066C47.9334 36.8011 50.1304 34.9097 52.7491 35.0359C56.6355 35.1041 57.7212 37.4273 59.6784 39.2152ZM58.7592 36.4475C57.0471 34.5965 54.5218 33.5511 51.9888 33.8112C48.1075 30.4779 48.9484 25.2456 52.5014 22.6016C53.9231 21.397 54.158 20.8491 53.8474 19.4526L53.7615 19.445C52.7539 17.9576 50.7716 17.0233 49.9332 14.839C50.6706 14.3339 52.2059 12.1193 52.7464 12.286C53.0595 12.286 53.1428 12.286 54.0772 13.3314C54.9408 14.3315 55.9585 15.2733 57.1328 15.9223C58.8095 17.8087 59.1959 20.5612 58.2944 22.8614C57.4434 25.2453 55.1479 26.1064 54.2287 27.9069L54.2742 27.9549C54.0848 29.1771 54.4307 29.5761 55.7085 30.7124C56.9838 31.8614 58.7238 33.4248 58.7592 36.4475ZM55.8249 27.7733C56.9738 26.6723 58.2617 25.6496 59.042 24.2077C59.7061 24.9122 60.0976 25.1698 60.8426 25.1698C62.1658 25.1698 63.244 26.2456 63.244 27.5713C62.9056 31.743 57.1484 29.5461 55.8249 27.7733Z"/>
</mask>
<path d="M64.4993 27.5731C64.4993 25.558 62.8604 23.9166 60.8453 23.9166C60.5499 23.9166 60.4564 23.9065 59.5928 22.9494C60.2898 20.9545 60.1256 18.4823 59.1256 16.6439C61.6534 17.3712 64.4867 16.0379 64.5019 13.1667C64.5019 11.1566 62.863 9.52024 60.8479 9.52024C60.5423 9.52024 60.459 9.52024 59.5246 8.47226C59.3756 8.30307 59.214 8.13641 59.0524 7.96469C60.6989 5.15918 60.4337 0.659029 56.3681 0.5C54.353 0.5 52.7116 2.13632 52.7116 4.14643C52.7116 4.40148 52.704 4.50501 52.1661 5.02019C48.8859 5.23988 47.0652 7.24744 45.9692 8.47216C45.0349 9.51762 44.9591 9.51762 44.6384 9.51762C44.4086 9.51762 44.3 9.51004 43.9011 9.106C46.2369 6.41918 46.6284 0.691663 41.9693 0.50031C39.9541 0.50031 38.3127 2.13663 38.3127 4.14674C38.3127 4.41189 38.3077 4.51542 37.7117 5.06846C34.631 4.47756 31.5123 6.36643 30.3156 7.87145C31.8585 5.17953 31.6565 0.656948 27.5656 0.500504C25.5555 0.500504 23.9166 2.13683 23.9166 4.14693C23.9166 4.45501 23.9065 4.54592 22.9495 5.40702C20.952 4.71007 18.4747 4.87419 16.6364 5.87924C17.3763 3.35144 16.0455 0.518133 13.1667 0.500485C11.1566 0.500485 9.51775 2.13681 9.51775 4.14691C9.51775 4.46762 9.51775 4.54338 8.46977 5.48024C8.30058 5.63176 8.12887 5.79337 7.95715 5.95499C5.17433 4.29843 0.654078 4.56613 0.50022 8.63173C0.50022 10.6469 2.13654 12.2882 4.14917 12.2882C4.41179 12.2882 4.51028 12.2958 5.02797 12.8413C5.23756 16.0837 7.15677 17.8362 8.4749 19.0231C9.52036 19.9574 9.52036 20.0382 9.52036 20.3463C9.52036 20.5786 9.51278 20.6872 9.10117 21.0937C6.41687 18.7604 0.686827 18.3791 0.5 23.0306C0.5 25.0457 2.13632 26.6871 4.14895 26.6871C4.41157 26.6871 4.51511 26.6922 5.07067 27.2881C4.47724 30.3916 6.404 33.5103 7.90651 34.7024C5.2222 33.1469 0.659029 33.3236 0.5 37.4271C0.5 39.4422 2.13632 41.0836 4.14895 41.0836C4.45955 41.0836 4.54794 41.0912 5.40147 42.0432C4.7146 44.0381 4.87875 46.5306 5.88631 48.3639C3.35348 47.624 0.517648 48.9548 0.5 51.8335C0.5 53.8436 2.13632 55.48 4.14895 55.48C4.46965 55.48 4.54541 55.48 5.47471 56.5204C5.61865 56.687 5.78027 56.8638 5.95198 57.0456C4.30299 59.8385 4.56817 64.3435 8.63124 64.5C10.6464 64.5 12.2878 62.8637 12.2878 60.8535C12.2878 60.5935 12.2953 60.4924 12.8181 59.9899C16.0832 59.793 17.8332 57.8511 19.0226 56.5278C19.9468 55.4849 20.0327 55.4849 20.3433 55.4849C20.5756 55.4849 20.6817 55.4925 21.0882 55.9066C18.7625 58.5833 18.3787 64.3132 23.0301 64.5C25.0453 64.5 26.6866 62.8637 26.6866 60.8536C26.6866 60.5884 26.6917 60.4849 27.2877 59.9319C30.3912 60.5253 33.5098 58.5985 34.7019 57.096C33.1464 59.7778 33.3231 64.3409 37.4292 64.4999C39.4444 64.4999 41.0857 62.8636 41.0857 60.8535C41.0857 60.5454 41.0958 60.4545 42.0504 59.5934C44.0251 60.2904 46.5428 60.1187 48.366 59.1111C47.6261 61.6389 48.9493 64.4823 51.8281 64.4999C53.8432 64.4999 55.4846 62.8636 55.4846 60.8535C55.4846 60.5328 55.4846 60.4571 56.5326 59.5202C56.6917 59.3762 56.871 59.2045 57.0452 59.0429C59.8255 60.7045 64.3457 60.4267 64.4996 56.3687C64.4996 54.3536 62.8606 52.7122 60.8456 52.7122C60.5956 52.7122 60.4946 52.7046 59.982 52.1642C59.7623 48.8814 57.7522 47.0607 56.53 45.9698C55.4845 45.0355 55.4845 44.9597 55.4845 44.639C55.4845 44.4092 55.4921 44.3006 55.8961 43.9067C58.5931 46.24 64.3105 46.6213 64.5018 41.9698C64.5018 39.9547 62.8629 38.3133 60.8478 38.3133C60.5903 38.3133 60.4893 38.3083 59.9337 37.7123C60.5246 34.6315 58.6332 31.5129 57.1307 30.3162C59.815 31.8616 64.3426 31.6495 64.4991 27.5737L64.4993 27.5731ZM53.9665 4.14666C53.9665 2.82846 55.0423 1.75527 56.368 1.75527C59.219 1.84366 59.0927 5.16936 58.1306 7.04817C56.9261 5.95727 55.3983 5.24009 53.7721 5.04563C53.911 4.77796 53.9665 4.50523 53.9665 4.14666ZM44.6381 10.7729C45.5497 10.7729 45.931 10.3966 46.9057 9.30575C49.8376 5.44463 55.2289 5.04059 58.502 9.21484C59.4363 10.2754 59.9439 10.8032 60.8429 10.7704C62.1661 10.7704 63.2443 11.8436 63.2443 13.1643C63.2443 14.4875 62.1686 15.5657 60.8429 15.5657C59.7242 15.5304 58.6333 15.3915 57.7975 14.788C56.7116 14.4067 55.7672 13.2981 55.0096 12.495C53.3303 10.4849 52.1283 10.5052 50.4743 12.495C49.0172 14.3713 46.5551 15.8662 44.0248 15.5405C43.4667 14.8157 42.8026 14.1693 42.1233 13.5657C41.0778 12.6314 41.0778 12.5481 41.0778 12.2425C40.8455 11.9066 42.5147 10.6162 43.0652 10.0455C43.6258 10.5986 43.9916 10.7729 44.6381 10.7729ZM43.5396 31.1468C45.2037 31.374 46.9739 31.0761 48.383 30.2932C48.7467 31.9195 49.58 33.119 50.4966 34.0912C47.9058 34.8664 46.777 36.417 45.5295 37.7477C45.9967 35.2326 44.8224 32.4195 43.5396 31.1468ZM39.8048 44.0482L39.8907 44.1037C39.6659 45.3411 40.022 45.7831 41.2947 46.9067C42.5801 48.0506 44.3351 49.6163 44.3629 52.6694C43.9336 52.4219 43.6659 52.0254 43.3023 51.6517C42.1988 50.2881 39.6028 47.8739 36.027 48.1971C34.7973 46.2855 34.6382 43.3259 35.8957 41.4041V41.3157C36.4664 40.3561 37.2745 39.5304 38.1028 38.8107C39.1912 37.8385 39.5674 37.4546 39.5674 36.5456C39.6684 35.6188 38.7669 34.8688 37.7543 33.9723C36.2366 32.6592 34.8048 30.6188 35.0548 27.9218C35.8048 27.0405 36.2947 26.5936 36.5397 26.6921C36.8528 26.6921 36.9361 26.6921 37.8932 27.7704C38.1331 28.038 38.4185 28.3411 38.7266 28.6492C39.4286 29.4749 40.474 29.9522 41.3099 30.7198C45.1685 33.6466 45.5877 39.0683 41.2948 42.3839C40.4438 43.1238 40.2619 43.3563 39.8048 44.0482ZM48.1836 44.8159C48.2114 46.3361 48.6104 47.6795 49.3907 48.8941C47.5397 49.7704 46.6256 50.9698 45.5927 52.0785C45.3478 48.8386 43.3503 47.0583 42.1281 45.9699C41.2771 45.2098 41.1205 45.0154 41.0902 44.7982C43.1987 45.879 46.0875 45.8941 48.1836 44.8159ZM34.7017 48.384C33.0754 48.7476 31.8734 49.5734 30.9012 50.485C30.131 47.9092 28.5805 46.7779 27.2522 45.5305C29.7825 45.9951 32.583 44.8082 33.8558 43.5204C33.6235 45.1895 33.9214 46.9623 34.7017 48.384ZM34.2673 41.3111C31.3204 45.1924 25.9112 45.5636 22.6032 41.2959C21.8633 40.4575 21.6436 40.2909 20.9896 39.7807L20.9138 39.8969C19.6563 39.6595 19.2093 40.0105 18.073 41.3085C16.9265 42.5863 15.3609 44.3312 12.3331 44.3641C12.3356 44.359 12.3356 44.3565 12.3381 44.3515C12.5881 43.9348 12.9669 43.6722 13.3356 43.3186C14.7068 42.2227 17.1386 39.6115 16.8078 36.0207C20.0275 33.9727 24.0954 35.2859 26.1789 38.1066C27.1512 39.195 27.535 39.5712 28.4466 39.5712C29.3582 39.6722 30.1132 38.7909 31.0173 37.7606C32.3254 36.2379 34.3809 34.801 37.088 35.0586C37.1536 35.1167 37.2142 35.1722 37.2723 35.2202C38.3178 36.1545 38.3178 36.2378 38.3178 36.5434C38.54 36.9778 36.5172 38.4475 36.0072 39.0838C35.3228 39.7833 34.9668 40.5964 34.2673 41.3111ZM20.1964 48.1849C18.6813 48.2101 17.3328 48.6016 16.1005 49.3819C15.2369 47.5486 14.0324 46.6269 12.9187 45.594C16.1359 45.3465 17.9137 43.3617 19.0222 42.1294C19.8 41.2531 19.9843 41.1142 20.2065 41.0915C19.1106 43.1723 19.1081 46.0988 20.1964 48.1849ZM21.4793 33.8593C19.8076 33.6219 18.0273 33.9174 16.6081 34.7002C16.2167 32.9679 15.3101 31.7305 14.5222 30.8972C17.0676 30.127 18.2141 28.5841 19.4691 27.2407C19.0019 29.771 20.1889 32.5868 21.4793 33.8593ZM25.1889 20.9728L25.103 20.9172C25.3454 19.6622 24.9919 19.2253 23.6914 18.0738C22.4161 16.9274 20.6737 15.3642 20.6384 12.3415C22.7343 14.2228 24.3404 17.0662 28.9816 16.8087C30.219 18.7203 30.3048 21.5511 29.1786 23.5383C27.6987 26.4853 23.0119 27.5611 26.9109 30.7173C28.6154 32.1617 30.1987 34.1441 29.9462 37.0758C28.5826 38.5531 28.5144 38.8864 27.1154 37.2728C26.2089 36.0834 24.9235 35.2905 23.6912 34.2703C19.8276 31.3309 19.416 25.9471 23.7064 22.6062C24.5144 21.8991 24.7242 21.6369 25.1889 20.9728ZM16.8153 20.1798C16.7875 18.6621 16.3935 17.3187 15.6132 16.1041C17.4567 15.2227 18.3783 14.0232 19.4036 12.9071C19.646 16.1319 21.6334 17.9147 22.8683 19.0232C23.7546 19.8162 23.8884 19.9954 23.9087 20.2177C21.8102 19.1217 18.9291 19.1065 16.8153 20.1798ZM29.1711 31.1871C31.315 31.0078 32.8049 30.0583 33.8125 29.172C33.9943 31.3234 34.9488 32.8184 35.8377 33.8234C33.8024 33.985 32.3327 34.8209 31.1761 35.8386C31.0145 33.8108 30.1837 32.3437 29.1711 31.1871ZM48.1964 28.9674C46.2974 30.2149 43.4667 30.3033 41.479 29.1947C38.5296 27.7527 37.4311 22.9952 34.2723 26.9093C32.8354 28.6113 30.8556 30.1845 27.9339 29.9497C27.8683 29.8916 27.8077 29.836 27.7319 29.7653C26.6865 28.831 26.6865 28.7477 26.6865 28.4421C26.4642 28.0027 28.4768 26.5557 28.9895 25.9093C29.6688 25.2174 30.0223 24.3967 30.7168 23.6896C32.1966 21.7173 35.3329 19.7855 38.7419 20.98C41.05 21.7325 42.103 23.6366 43.4742 24.8007C43.4969 24.8184 43.9919 25.1947 44.0121 25.2098L44.0803 25.1063C45.3278 25.3436 45.7772 24.9876 46.906 23.7073C48.0499 22.4244 49.6131 20.6694 52.661 20.6391C50.7848 22.73 47.9363 24.3638 48.1964 28.9674ZM30.305 16.6142C31.9287 16.2455 33.1257 15.4147 34.0928 14.5006C34.8605 17.0586 36.4135 18.2076 37.757 19.4702C35.2368 19.0031 32.4212 20.1722 31.1437 21.4626C31.376 19.801 31.0828 18.0283 30.305 16.6142ZM45.9687 22.8717C45.1884 23.7455 45.0066 23.8869 44.7819 23.9096C45.8803 21.8061 45.893 18.9299 44.8198 16.8134C46.3323 16.7831 47.6758 16.3867 48.9005 15.6038C49.7718 17.4548 50.9763 18.3715 52.0874 19.4043C48.8425 19.6493 47.0596 21.647 45.9687 22.8717ZM38.1077 6.4096C38.5295 6.03587 38.936 5.63941 39.2163 5.3187L39.1986 5.31617C39.4688 4.95506 39.5698 4.62678 39.5698 4.14698C39.5698 2.82878 40.6456 1.75559 41.9713 1.75559C43.2895 1.75559 44.3652 2.82885 44.3652 4.14698C44.4536 6.50049 43.0698 8.54343 41.2945 9.98789C40.2061 10.9601 39.8299 11.3414 39.8299 12.2455C39.8299 13.1495 40.2062 13.5308 41.3501 14.5535C43.9435 16.4701 45.2743 20.2707 43.7062 23.2956C42.5344 21.9572 41.2365 20.6012 39.537 19.9371C39.4259 19.2982 39.0092 18.8941 38.0749 18.0583C33.9057 14.8109 34.1254 9.44021 38.1077 6.4096ZM25.1708 4.14698C25.1708 2.82879 26.244 1.7556 27.5647 1.7556C31.749 2.08892 29.5445 7.85153 27.7743 9.17503C26.6733 8.02608 25.6531 6.73567 24.2087 5.95785C24.9132 5.29374 25.1708 4.90205 25.1708 4.14698ZM15.916 7.88179C17.7948 6.19239 20.5574 5.80354 22.8629 6.70503C25.2467 7.55855 26.1053 9.85149 27.9083 10.7707L27.9538 10.7278C29.1684 10.9121 29.58 10.5712 30.7113 9.29339C31.8552 8.01812 33.4184 6.27823 36.4386 6.24035C34.5851 7.94992 33.5446 10.4777 33.8073 13.0107C30.4765 16.8971 25.2165 16.0461 22.6003 12.4981C21.3957 11.0764 20.8452 10.8416 19.4513 11.1547L19.4437 11.238C17.9588 12.233 17.0195 14.2304 14.8477 15.0739C14.373 14.531 13.8503 14.036 13.3326 13.5714C12.2871 12.637 12.2871 12.5537 12.2871 12.2481C12.2871 11.9426 12.2871 11.8592 13.3326 10.9249C13.5952 10.69 13.9159 10.4072 14.1836 10.1269C14.8679 9.47792 15.4413 8.70505 15.916 7.88179ZM4.1485 11.0333C2.8303 11.0333 1.75459 9.95499 1.75459 8.63181C1.83792 5.78337 5.17883 5.90711 7.04245 6.87169C5.94902 8.07372 5.23688 9.6015 5.04242 11.2277C4.77727 11.0889 4.50202 11.0333 4.1485 11.0333ZM9.28482 18.0635C8.34293 17.2151 7.14342 16.1242 6.57777 14.3843L6.24949 12.4575C6.0904 9.77824 7.6889 7.74034 9.31262 6.41458C10.401 5.44236 10.7772 5.06102 10.7772 4.14944C10.7772 2.83124 11.8505 1.75805 13.1711 1.75805C16.108 1.85653 15.8908 5.32115 14.8631 7.20248C14.2217 8.45248 13.2697 9.306 12.502 9.99035C10.4364 11.6823 10.5601 12.9247 12.5828 14.5787C14.4515 16.0737 15.858 18.4424 15.5474 20.9726C14.8227 21.5307 14.1737 22.1948 13.5727 22.8741C12.6383 23.9196 12.555 23.9196 12.2494 23.9196C11.9439 23.9196 11.8631 23.9196 10.9262 22.8716C10.6484 22.561 10.3454 22.2327 10.0449 21.9247C11.3479 20.5686 10.8985 19.3717 9.28482 18.0635ZM5.32021 25.7933L5.31768 25.8034C4.95658 25.5307 4.6283 25.4297 4.14597 25.4297C2.82777 25.4297 1.75206 24.3539 1.75206 23.0282C1.75206 21.71 2.82532 20.6343 4.14597 20.6343C6.50704 20.5434 8.54243 21.9348 9.98688 23.705C10.9591 24.7933 11.343 25.1696 12.2444 25.1696C13.1459 25.1696 13.5298 24.7933 14.55 23.6519C16.4768 21.0459 20.2772 19.7352 23.285 21.2857C21.9441 22.4574 20.6007 23.7604 19.934 25.4599C19.2875 25.571 18.886 25.9877 18.0578 26.922C14.7926 31.1013 9.42168 30.8665 6.3859 26.8639C6.01973 26.4574 5.6232 26.0382 5.32021 25.7933ZM6.23941 28.5559C7.95654 30.4094 10.4818 31.4624 13.0273 31.1821C16.9211 34.5356 16.0197 39.7807 12.497 42.3814C11.0853 43.5809 10.7924 44.1743 11.1939 45.5506L11.2445 45.5556C12.2242 47.0076 14.2798 48.0253 15.0677 50.1465C14.5273 50.6263 14.0323 51.1491 13.5702 51.6693C12.6359 52.7147 12.5526 52.7147 12.247 52.7147C11.9414 52.7147 11.8606 52.7147 10.9288 51.6718C10.3253 50.9698 9.61059 50.2627 8.84796 49.692C6.24446 48.3132 5.72678 44.6744 6.69899 42.1316C7.53739 39.8463 9.67375 38.9119 10.6257 37.3463C11.0373 36.0281 10.6636 35.4524 9.29492 34.2681C8.01965 33.1267 6.28234 31.5659 6.23941 28.5559ZM4.1485 39.8289C2.8303 39.8289 1.75459 38.7531 1.75459 37.4274C2.09044 33.2557 7.85304 35.4577 9.16885 37.2203C8.01479 38.3112 6.73706 39.3491 5.95419 40.7859C5.2926 40.084 4.89852 39.8289 4.1485 39.8289ZM11.032 60.8537C11.032 62.1719 9.95624 63.2451 8.63054 63.2451C5.77952 63.1593 5.90836 59.8284 6.86538 57.9573C8.06993 59.0482 9.59771 59.7628 11.2239 59.9573C11.0901 60.2224 11.032 60.4977 11.032 60.8537ZM20.3449 54.2275C19.4308 54.2275 19.0495 54.6038 18.0647 55.7149C16.9687 56.9876 15.191 58.7755 12.3122 58.7527L12.3046 58.7603C9.81472 58.8335 7.85516 57.4598 6.41323 55.6921C5.44102 54.6037 5.05715 54.2275 4.1481 54.2275C0.994078 54.1467 0.994078 49.5179 4.1481 49.4346C6.45364 49.2831 8.82738 50.975 9.989 52.5053C10.9612 53.5937 11.3451 53.9699 12.2466 53.9699C13.1455 54.0002 13.6431 53.485 14.5799 52.4245C16.1026 50.5129 18.4511 49.1618 20.9839 49.4599C21.5369 50.177 22.1935 50.8311 22.8728 51.4169C23.9182 52.3512 23.9182 52.427 23.9182 52.7477C24.1506 53.0962 22.4763 54.384 21.9233 54.9598C21.3602 54.4043 20.9914 54.2275 20.3449 54.2275ZM26.8904 58.5911C26.4712 58.9648 26.0621 59.3588 25.7868 59.677L25.8045 59.6795C25.5318 60.0406 25.4308 60.3689 25.4308 60.8537C25.4308 62.1719 24.355 63.2451 23.0293 63.2451C21.7111 63.2451 20.6354 62.1719 20.6354 60.8537C20.5546 58.5053 21.9359 56.4472 23.7061 55.0128C24.8121 54.023 25.1707 53.629 25.1707 52.7477C25.2642 51.1896 22.893 50.1391 21.9586 48.6694V48.3184L21.7086 48.2856C20.4409 46.4649 20.2894 43.6947 21.2843 41.7124C22.4561 43.0558 23.7616 44.4068 25.4636 45.0684C25.5797 45.7022 25.9914 46.1038 26.8954 46.9093C31.0746 50.1467 30.8954 55.5256 26.8904 58.5911ZM39.8273 60.8537C39.8273 62.1719 38.7516 63.2451 37.4259 63.2451C33.2567 62.9118 35.4536 57.1517 37.2163 55.836C38.3097 56.9926 39.3425 58.2703 40.7869 59.0456C40.0849 59.7072 39.8273 60.0987 39.8273 60.8537ZM49.0976 57.0962C47.234 58.7956 44.4158 59.2098 42.1307 58.2957C39.7241 57.4548 38.8479 55.1088 37.0726 54.2477L37.0373 54.2806C35.8075 54.0836 35.406 54.4295 34.2645 55.7098C33.1232 56.9826 31.5625 58.7199 28.55 58.7629C30.4035 57.0482 31.4565 54.5079 31.1812 51.9724C34.5247 48.1164 39.7391 48.9598 42.378 52.5053C43.58 53.9169 44.1683 54.2073 45.5446 53.8108L45.5496 53.7603C47.0143 52.7678 47.9789 50.7679 50.1531 49.932C50.6632 50.6794 52.8728 52.2022 52.7087 52.7502C52.7087 53.0633 52.7087 53.1466 51.6632 54.081C51.4183 54.3032 51.1127 54.5658 50.8602 54.831C50.1683 55.48 49.5774 56.2603 49.0976 57.0962ZM60.8451 53.9674C62.1683 53.9674 63.2466 55.0432 63.2466 56.3689C63.1632 59.2123 59.8223 59.0987 57.9562 58.129C59.0471 56.9245 59.7617 55.3992 59.9562 53.7755C60.2188 53.9119 60.4915 53.9674 60.8451 53.9674ZM55.691 46.9068C59.5092 49.7957 60.037 55.217 55.691 58.5883C54.6027 59.5605 54.2264 59.9419 54.2264 60.8535C54.2264 62.1717 53.1506 63.2449 51.8249 63.2449C48.8855 63.1489 49.1078 59.6388 50.1583 57.7752C50.7921 56.5403 51.7416 55.6919 52.5017 55.0126C54.5194 53.3283 54.4891 52.1237 52.4765 50.4571C50.5926 48.9773 49.1406 46.5657 49.4563 44.0203C50.1709 43.4647 50.8275 42.8006 51.4158 42.1288C52.3502 41.0834 52.4259 41.0834 52.7466 41.0834C53.0951 40.8511 54.3754 42.5152 54.9537 43.0707C53.6583 44.4141 54.1027 45.6214 55.691 46.9068ZM59.6784 39.2152L59.6809 39.1975C60.042 39.4677 60.3678 39.5687 60.8451 39.5687C62.1683 39.5687 63.2466 40.6445 63.2466 41.9702C63.2466 43.2884 62.1708 44.3641 60.8451 44.3641C58.5143 44.4651 56.4208 43.0434 55.0143 41.2934C54.0245 40.1874 53.6305 39.8288 52.7467 39.8288C51.7871 39.7101 50.9588 40.748 50.0775 41.7429C48.1911 44.1368 44.4892 45.1419 41.6961 43.7151C43.0395 42.5409 44.4007 41.2454 45.0597 39.5384C45.6986 39.4248 46.0976 39.0131 46.9082 38.1066C47.9334 36.8011 50.1304 34.9097 52.7491 35.0359C56.6355 35.1041 57.7212 37.4273 59.6784 39.2152ZM58.7592 36.4475C57.0471 34.5965 54.5218 33.5511 51.9888 33.8112C48.1075 30.4779 48.9484 25.2456 52.5014 22.6016C53.9231 21.397 54.158 20.8491 53.8474 19.4526L53.7615 19.445C52.7539 17.9576 50.7716 17.0233 49.9332 14.839C50.6706 14.3339 52.2059 12.1193 52.7464 12.286C53.0595 12.286 53.1428 12.286 54.0772 13.3314C54.9408 14.3315 55.9585 15.2733 57.1328 15.9223C58.8095 17.8087 59.1959 20.5612 58.2944 22.8614C57.4434 25.2453 55.1479 26.1064 54.2287 27.9069L54.2742 27.9549C54.0848 29.1771 54.4307 29.5761 55.7085 30.7124C56.9838 31.8614 58.7238 33.4248 58.7592 36.4475ZM55.8249 27.7733C56.9738 26.6723 58.2617 25.6496 59.042 24.2077C59.7061 24.9122 60.0976 25.1698 60.8426 25.1698C62.1658 25.1698 63.244 26.2456 63.244 27.5713C62.9056 31.743 57.1484 29.5461 55.8249 27.7733Z" fill="#E8E8E8"/>
<path d="M64.4993 27.5731C64.4993 25.558 62.8604 23.9166 60.8453 23.9166C60.5499 23.9166 60.4564 23.9065 59.5928 22.9494C60.2898 20.9545 60.1256 18.4823 59.1256 16.6439C61.6534 17.3712 64.4867 16.0379 64.5019 13.1667C64.5019 11.1566 62.863 9.52024 60.8479 9.52024C60.5423 9.52024 60.459 9.52024 59.5246 8.47226C59.3756 8.30307 59.214 8.13641 59.0524 7.96469C60.6989 5.15918 60.4337 0.659029 56.3681 0.5C54.353 0.5 52.7116 2.13632 52.7116 4.14643C52.7116 4.40148 52.704 4.50501 52.1661 5.02019C48.8859 5.23988 47.0652 7.24744 45.9692 8.47216C45.0349 9.51762 44.9591 9.51762 44.6384 9.51762C44.4086 9.51762 44.3 9.51004 43.9011 9.106C46.2369 6.41918 46.6284 0.691663 41.9693 0.50031C39.9541 0.50031 38.3127 2.13663 38.3127 4.14674C38.3127 4.41189 38.3077 4.51542 37.7117 5.06846C34.631 4.47756 31.5123 6.36643 30.3156 7.87145C31.8585 5.17953 31.6565 0.656948 27.5656 0.500504C25.5555 0.500504 23.9166 2.13683 23.9166 4.14693C23.9166 4.45501 23.9065 4.54592 22.9495 5.40702C20.952 4.71007 18.4747 4.87419 16.6364 5.87924C17.3763 3.35144 16.0455 0.518133 13.1667 0.500485C11.1566 0.500485 9.51775 2.13681 9.51775 4.14691C9.51775 4.46762 9.51775 4.54338 8.46977 5.48024C8.30058 5.63176 8.12887 5.79337 7.95715 5.95499C5.17433 4.29843 0.654078 4.56613 0.50022 8.63173C0.50022 10.6469 2.13654 12.2882 4.14917 12.2882C4.41179 12.2882 4.51028 12.2958 5.02797 12.8413C5.23756 16.0837 7.15677 17.8362 8.4749 19.0231C9.52036 19.9574 9.52036 20.0382 9.52036 20.3463C9.52036 20.5786 9.51278 20.6872 9.10117 21.0937C6.41687 18.7604 0.686827 18.3791 0.5 23.0306C0.5 25.0457 2.13632 26.6871 4.14895 26.6871C4.41157 26.6871 4.51511 26.6922 5.07067 27.2881C4.47724 30.3916 6.404 33.5103 7.90651 34.7024C5.2222 33.1469 0.659029 33.3236 0.5 37.4271C0.5 39.4422 2.13632 41.0836 4.14895 41.0836C4.45955 41.0836 4.54794 41.0912 5.40147 42.0432C4.7146 44.0381 4.87875 46.5306 5.88631 48.3639C3.35348 47.624 0.517648 48.9548 0.5 51.8335C0.5 53.8436 2.13632 55.48 4.14895 55.48C4.46965 55.48 4.54541 55.48 5.47471 56.5204C5.61865 56.687 5.78027 56.8638 5.95198 57.0456C4.30299 59.8385 4.56817 64.3435 8.63124 64.5C10.6464 64.5 12.2878 62.8637 12.2878 60.8535C12.2878 60.5935 12.2953 60.4924 12.8181 59.9899C16.0832 59.793 17.8332 57.8511 19.0226 56.5278C19.9468 55.4849 20.0327 55.4849 20.3433 55.4849C20.5756 55.4849 20.6817 55.4925 21.0882 55.9066C18.7625 58.5833 18.3787 64.3132 23.0301 64.5C25.0453 64.5 26.6866 62.8637 26.6866 60.8536C26.6866 60.5884 26.6917 60.4849 27.2877 59.9319C30.3912 60.5253 33.5098 58.5985 34.7019 57.096C33.1464 59.7778 33.3231 64.3409 37.4292 64.4999C39.4444 64.4999 41.0857 62.8636 41.0857 60.8535C41.0857 60.5454 41.0958 60.4545 42.0504 59.5934C44.0251 60.2904 46.5428 60.1187 48.366 59.1111C47.6261 61.6389 48.9493 64.4823 51.8281 64.4999C53.8432 64.4999 55.4846 62.8636 55.4846 60.8535C55.4846 60.5328 55.4846 60.4571 56.5326 59.5202C56.6917 59.3762 56.871 59.2045 57.0452 59.0429C59.8255 60.7045 64.3457 60.4267 64.4996 56.3687C64.4996 54.3536 62.8606 52.7122 60.8456 52.7122C60.5956 52.7122 60.4946 52.7046 59.982 52.1642C59.7623 48.8814 57.7522 47.0607 56.53 45.9698C55.4845 45.0355 55.4845 44.9597 55.4845 44.639C55.4845 44.4092 55.4921 44.3006 55.8961 43.9067C58.5931 46.24 64.3105 46.6213 64.5018 41.9698C64.5018 39.9547 62.8629 38.3133 60.8478 38.3133C60.5903 38.3133 60.4893 38.3083 59.9337 37.7123C60.5246 34.6315 58.6332 31.5129 57.1307 30.3162C59.815 31.8616 64.3426 31.6495 64.4991 27.5737L64.4993 27.5731ZM53.9665 4.14666C53.9665 2.82846 55.0423 1.75527 56.368 1.75527C59.219 1.84366 59.0927 5.16936 58.1306 7.04817C56.9261 5.95727 55.3983 5.24009 53.7721 5.04563C53.911 4.77796 53.9665 4.50523 53.9665 4.14666ZM44.6381 10.7729C45.5497 10.7729 45.931 10.3966 46.9057 9.30575C49.8376 5.44463 55.2289 5.04059 58.502 9.21484C59.4363 10.2754 59.9439 10.8032 60.8429 10.7704C62.1661 10.7704 63.2443 11.8436 63.2443 13.1643C63.2443 14.4875 62.1686 15.5657 60.8429 15.5657C59.7242 15.5304 58.6333 15.3915 57.7975 14.788C56.7116 14.4067 55.7672 13.2981 55.0096 12.495C53.3303 10.4849 52.1283 10.5052 50.4743 12.495C49.0172 14.3713 46.5551 15.8662 44.0248 15.5405C43.4667 14.8157 42.8026 14.1693 42.1233 13.5657C41.0778 12.6314 41.0778 12.5481 41.0778 12.2425C40.8455 11.9066 42.5147 10.6162 43.0652 10.0455C43.6258 10.5986 43.9916 10.7729 44.6381 10.7729ZM43.5396 31.1468C45.2037 31.374 46.9739 31.0761 48.383 30.2932C48.7467 31.9195 49.58 33.119 50.4966 34.0912C47.9058 34.8664 46.777 36.417 45.5295 37.7477C45.9967 35.2326 44.8224 32.4195 43.5396 31.1468ZM39.8048 44.0482L39.8907 44.1037C39.6659 45.3411 40.022 45.7831 41.2947 46.9067C42.5801 48.0506 44.3351 49.6163 44.3629 52.6694C43.9336 52.4219 43.6659 52.0254 43.3023 51.6517C42.1988 50.2881 39.6028 47.8739 36.027 48.1971C34.7973 46.2855 34.6382 43.3259 35.8957 41.4041V41.3157C36.4664 40.3561 37.2745 39.5304 38.1028 38.8107C39.1912 37.8385 39.5674 37.4546 39.5674 36.5456C39.6684 35.6188 38.7669 34.8688 37.7543 33.9723C36.2366 32.6592 34.8048 30.6188 35.0548 27.9218C35.8048 27.0405 36.2947 26.5936 36.5397 26.6921C36.8528 26.6921 36.9361 26.6921 37.8932 27.7704C38.1331 28.038 38.4185 28.3411 38.7266 28.6492C39.4286 29.4749 40.474 29.9522 41.3099 30.7198C45.1685 33.6466 45.5877 39.0683 41.2948 42.3839C40.4438 43.1238 40.2619 43.3563 39.8048 44.0482ZM48.1836 44.8159C48.2114 46.3361 48.6104 47.6795 49.3907 48.8941C47.5397 49.7704 46.6256 50.9698 45.5927 52.0785C45.3478 48.8386 43.3503 47.0583 42.1281 45.9699C41.2771 45.2098 41.1205 45.0154 41.0902 44.7982C43.1987 45.879 46.0875 45.8941 48.1836 44.8159ZM34.7017 48.384C33.0754 48.7476 31.8734 49.5734 30.9012 50.485C30.131 47.9092 28.5805 46.7779 27.2522 45.5305C29.7825 45.9951 32.583 44.8082 33.8558 43.5204C33.6235 45.1895 33.9214 46.9623 34.7017 48.384ZM34.2673 41.3111C31.3204 45.1924 25.9112 45.5636 22.6032 41.2959C21.8633 40.4575 21.6436 40.2909 20.9896 39.7807L20.9138 39.8969C19.6563 39.6595 19.2093 40.0105 18.073 41.3085C16.9265 42.5863 15.3609 44.3312 12.3331 44.3641C12.3356 44.359 12.3356 44.3565 12.3381 44.3515C12.5881 43.9348 12.9669 43.6722 13.3356 43.3186C14.7068 42.2227 17.1386 39.6115 16.8078 36.0207C20.0275 33.9727 24.0954 35.2859 26.1789 38.1066C27.1512 39.195 27.535 39.5712 28.4466 39.5712C29.3582 39.6722 30.1132 38.7909 31.0173 37.7606C32.3254 36.2379 34.3809 34.801 37.088 35.0586C37.1536 35.1167 37.2142 35.1722 37.2723 35.2202C38.3178 36.1545 38.3178 36.2378 38.3178 36.5434C38.54 36.9778 36.5172 38.4475 36.0072 39.0838C35.3228 39.7833 34.9668 40.5964 34.2673 41.3111ZM20.1964 48.1849C18.6813 48.2101 17.3328 48.6016 16.1005 49.3819C15.2369 47.5486 14.0324 46.6269 12.9187 45.594C16.1359 45.3465 17.9137 43.3617 19.0222 42.1294C19.8 41.2531 19.9843 41.1142 20.2065 41.0915C19.1106 43.1723 19.1081 46.0988 20.1964 48.1849ZM21.4793 33.8593C19.8076 33.6219 18.0273 33.9174 16.6081 34.7002C16.2167 32.9679 15.3101 31.7305 14.5222 30.8972C17.0676 30.127 18.2141 28.5841 19.4691 27.2407C19.0019 29.771 20.1889 32.5868 21.4793 33.8593ZM25.1889 20.9728L25.103 20.9172C25.3454 19.6622 24.9919 19.2253 23.6914 18.0738C22.4161 16.9274 20.6737 15.3642 20.6384 12.3415C22.7343 14.2228 24.3404 17.0662 28.9816 16.8087C30.219 18.7203 30.3048 21.5511 29.1786 23.5383C27.6987 26.4853 23.0119 27.5611 26.9109 30.7173C28.6154 32.1617 30.1987 34.1441 29.9462 37.0758C28.5826 38.5531 28.5144 38.8864 27.1154 37.2728C26.2089 36.0834 24.9235 35.2905 23.6912 34.2703C19.8276 31.3309 19.416 25.9471 23.7064 22.6062C24.5144 21.8991 24.7242 21.6369 25.1889 20.9728ZM16.8153 20.1798C16.7875 18.6621 16.3935 17.3187 15.6132 16.1041C17.4567 15.2227 18.3783 14.0232 19.4036 12.9071C19.646 16.1319 21.6334 17.9147 22.8683 19.0232C23.7546 19.8162 23.8884 19.9954 23.9087 20.2177C21.8102 19.1217 18.9291 19.1065 16.8153 20.1798ZM29.1711 31.1871C31.315 31.0078 32.8049 30.0583 33.8125 29.172C33.9943 31.3234 34.9488 32.8184 35.8377 33.8234C33.8024 33.985 32.3327 34.8209 31.1761 35.8386C31.0145 33.8108 30.1837 32.3437 29.1711 31.1871ZM48.1964 28.9674C46.2974 30.2149 43.4667 30.3033 41.479 29.1947C38.5296 27.7527 37.4311 22.9952 34.2723 26.9093C32.8354 28.6113 30.8556 30.1845 27.9339 29.9497C27.8683 29.8916 27.8077 29.836 27.7319 29.7653C26.6865 28.831 26.6865 28.7477 26.6865 28.4421C26.4642 28.0027 28.4768 26.5557 28.9895 25.9093C29.6688 25.2174 30.0223 24.3967 30.7168 23.6896C32.1966 21.7173 35.3329 19.7855 38.7419 20.98C41.05 21.7325 42.103 23.6366 43.4742 24.8007C43.4969 24.8184 43.9919 25.1947 44.0121 25.2098L44.0803 25.1063C45.3278 25.3436 45.7772 24.9876 46.906 23.7073C48.0499 22.4244 49.6131 20.6694 52.661 20.6391C50.7848 22.73 47.9363 24.3638 48.1964 28.9674ZM30.305 16.6142C31.9287 16.2455 33.1257 15.4147 34.0928 14.5006C34.8605 17.0586 36.4135 18.2076 37.757 19.4702C35.2368 19.0031 32.4212 20.1722 31.1437 21.4626C31.376 19.801 31.0828 18.0283 30.305 16.6142ZM45.9687 22.8717C45.1884 23.7455 45.0066 23.8869 44.7819 23.9096C45.8803 21.8061 45.893 18.9299 44.8198 16.8134C46.3323 16.7831 47.6758 16.3867 48.9005 15.6038C49.7718 17.4548 50.9763 18.3715 52.0874 19.4043C48.8425 19.6493 47.0596 21.647 45.9687 22.8717ZM38.1077 6.4096C38.5295 6.03587 38.936 5.63941 39.2163 5.3187L39.1986 5.31617C39.4688 4.95506 39.5698 4.62678 39.5698 4.14698C39.5698 2.82878 40.6456 1.75559 41.9713 1.75559C43.2895 1.75559 44.3652 2.82885 44.3652 4.14698C44.4536 6.50049 43.0698 8.54343 41.2945 9.98789C40.2061 10.9601 39.8299 11.3414 39.8299 12.2455C39.8299 13.1495 40.2062 13.5308 41.3501 14.5535C43.9435 16.4701 45.2743 20.2707 43.7062 23.2956C42.5344 21.9572 41.2365 20.6012 39.537 19.9371C39.4259 19.2982 39.0092 18.8941 38.0749 18.0583C33.9057 14.8109 34.1254 9.44021 38.1077 6.4096ZM25.1708 4.14698C25.1708 2.82879 26.244 1.7556 27.5647 1.7556C31.749 2.08892 29.5445 7.85153 27.7743 9.17503C26.6733 8.02608 25.6531 6.73567 24.2087 5.95785C24.9132 5.29374 25.1708 4.90205 25.1708 4.14698ZM15.916 7.88179C17.7948 6.19239 20.5574 5.80354 22.8629 6.70503C25.2467 7.55855 26.1053 9.85149 27.9083 10.7707L27.9538 10.7278C29.1684 10.9121 29.58 10.5712 30.7113 9.29339C31.8552 8.01812 33.4184 6.27823 36.4386 6.24035C34.5851 7.94992 33.5446 10.4777 33.8073 13.0107C30.4765 16.8971 25.2165 16.0461 22.6003 12.4981C21.3957 11.0764 20.8452 10.8416 19.4513 11.1547L19.4437 11.238C17.9588 12.233 17.0195 14.2304 14.8477 15.0739C14.373 14.531 13.8503 14.036 13.3326 13.5714C12.2871 12.637 12.2871 12.5537 12.2871 12.2481C12.2871 11.9426 12.2871 11.8592 13.3326 10.9249C13.5952 10.69 13.9159 10.4072 14.1836 10.1269C14.8679 9.47792 15.4413 8.70505 15.916 7.88179ZM4.1485 11.0333C2.8303 11.0333 1.75459 9.95499 1.75459 8.63181C1.83792 5.78337 5.17883 5.90711 7.04245 6.87169C5.94902 8.07372 5.23688 9.6015 5.04242 11.2277C4.77727 11.0889 4.50202 11.0333 4.1485 11.0333ZM9.28482 18.0635C8.34293 17.2151 7.14342 16.1242 6.57777 14.3843L6.24949 12.4575C6.0904 9.77824 7.6889 7.74034 9.31262 6.41458C10.401 5.44236 10.7772 5.06102 10.7772 4.14944C10.7772 2.83124 11.8505 1.75805 13.1711 1.75805C16.108 1.85653 15.8908 5.32115 14.8631 7.20248C14.2217 8.45248 13.2697 9.306 12.502 9.99035C10.4364 11.6823 10.5601 12.9247 12.5828 14.5787C14.4515 16.0737 15.858 18.4424 15.5474 20.9726C14.8227 21.5307 14.1737 22.1948 13.5727 22.8741C12.6383 23.9196 12.555 23.9196 12.2494 23.9196C11.9439 23.9196 11.8631 23.9196 10.9262 22.8716C10.6484 22.561 10.3454 22.2327 10.0449 21.9247C11.3479 20.5686 10.8985 19.3717 9.28482 18.0635ZM5.32021 25.7933L5.31768 25.8034C4.95658 25.5307 4.6283 25.4297 4.14597 25.4297C2.82777 25.4297 1.75206 24.3539 1.75206 23.0282C1.75206 21.71 2.82532 20.6343 4.14597 20.6343C6.50704 20.5434 8.54243 21.9348 9.98688 23.705C10.9591 24.7933 11.343 25.1696 12.2444 25.1696C13.1459 25.1696 13.5298 24.7933 14.55 23.6519C16.4768 21.0459 20.2772 19.7352 23.285 21.2857C21.9441 22.4574 20.6007 23.7604 19.934 25.4599C19.2875 25.571 18.886 25.9877 18.0578 26.922C14.7926 31.1013 9.42168 30.8665 6.3859 26.8639C6.01973 26.4574 5.6232 26.0382 5.32021 25.7933ZM6.23941 28.5559C7.95654 30.4094 10.4818 31.4624 13.0273 31.1821C16.9211 34.5356 16.0197 39.7807 12.497 42.3814C11.0853 43.5809 10.7924 44.1743 11.1939 45.5506L11.2445 45.5556C12.2242 47.0076 14.2798 48.0253 15.0677 50.1465C14.5273 50.6263 14.0323 51.1491 13.5702 51.6693C12.6359 52.7147 12.5526 52.7147 12.247 52.7147C11.9414 52.7147 11.8606 52.7147 10.9288 51.6718C10.3253 50.9698 9.61059 50.2627 8.84796 49.692C6.24446 48.3132 5.72678 44.6744 6.69899 42.1316C7.53739 39.8463 9.67375 38.9119 10.6257 37.3463C11.0373 36.0281 10.6636 35.4524 9.29492 34.2681C8.01965 33.1267 6.28234 31.5659 6.23941 28.5559ZM4.1485 39.8289C2.8303 39.8289 1.75459 38.7531 1.75459 37.4274C2.09044 33.2557 7.85304 35.4577 9.16885 37.2203C8.01479 38.3112 6.73706 39.3491 5.95419 40.7859C5.2926 40.084 4.89852 39.8289 4.1485 39.8289ZM11.032 60.8537C11.032 62.1719 9.95624 63.2451 8.63054 63.2451C5.77952 63.1593 5.90836 59.8284 6.86538 57.9573C8.06993 59.0482 9.59771 59.7628 11.2239 59.9573C11.0901 60.2224 11.032 60.4977 11.032 60.8537ZM20.3449 54.2275C19.4308 54.2275 19.0495 54.6038 18.0647 55.7149C16.9687 56.9876 15.191 58.7755 12.3122 58.7527L12.3046 58.7603C9.81472 58.8335 7.85516 57.4598 6.41323 55.6921C5.44102 54.6037 5.05715 54.2275 4.1481 54.2275C0.994078 54.1467 0.994078 49.5179 4.1481 49.4346C6.45364 49.2831 8.82738 50.975 9.989 52.5053C10.9612 53.5937 11.3451 53.9699 12.2466 53.9699C13.1455 54.0002 13.6431 53.485 14.5799 52.4245C16.1026 50.5129 18.4511 49.1618 20.9839 49.4599C21.5369 50.177 22.1935 50.8311 22.8728 51.4169C23.9182 52.3512 23.9182 52.427 23.9182 52.7477C24.1506 53.0962 22.4763 54.384 21.9233 54.9598C21.3602 54.4043 20.9914 54.2275 20.3449 54.2275ZM26.8904 58.5911C26.4712 58.9648 26.0621 59.3588 25.7868 59.677L25.8045 59.6795C25.5318 60.0406 25.4308 60.3689 25.4308 60.8537C25.4308 62.1719 24.355 63.2451 23.0293 63.2451C21.7111 63.2451 20.6354 62.1719 20.6354 60.8537C20.5546 58.5053 21.9359 56.4472 23.7061 55.0128C24.8121 54.023 25.1707 53.629 25.1707 52.7477C25.2642 51.1896 22.893 50.1391 21.9586 48.6694V48.3184L21.7086 48.2856C20.4409 46.4649 20.2894 43.6947 21.2843 41.7124C22.4561 43.0558 23.7616 44.4068 25.4636 45.0684C25.5797 45.7022 25.9914 46.1038 26.8954 46.9093C31.0746 50.1467 30.8954 55.5256 26.8904 58.5911ZM39.8273 60.8537C39.8273 62.1719 38.7516 63.2451 37.4259 63.2451C33.2567 62.9118 35.4536 57.1517 37.2163 55.836C38.3097 56.9926 39.3425 58.2703 40.7869 59.0456C40.0849 59.7072 39.8273 60.0987 39.8273 60.8537ZM49.0976 57.0962C47.234 58.7956 44.4158 59.2098 42.1307 58.2957C39.7241 57.4548 38.8479 55.1088 37.0726 54.2477L37.0373 54.2806C35.8075 54.0836 35.406 54.4295 34.2645 55.7098C33.1232 56.9826 31.5625 58.7199 28.55 58.7629C30.4035 57.0482 31.4565 54.5079 31.1812 51.9724C34.5247 48.1164 39.7391 48.9598 42.378 52.5053C43.58 53.9169 44.1683 54.2073 45.5446 53.8108L45.5496 53.7603C47.0143 52.7678 47.9789 50.7679 50.1531 49.932C50.6632 50.6794 52.8728 52.2022 52.7087 52.7502C52.7087 53.0633 52.7087 53.1466 51.6632 54.081C51.4183 54.3032 51.1127 54.5658 50.8602 54.831C50.1683 55.48 49.5774 56.2603 49.0976 57.0962ZM60.8451 53.9674C62.1683 53.9674 63.2466 55.0432 63.2466 56.3689C63.1632 59.2123 59.8223 59.0987 57.9562 58.129C59.0471 56.9245 59.7617 55.3992 59.9562 53.7755C60.2188 53.9119 60.4915 53.9674 60.8451 53.9674ZM55.691 46.9068C59.5092 49.7957 60.037 55.217 55.691 58.5883C54.6027 59.5605 54.2264 59.9419 54.2264 60.8535C54.2264 62.1717 53.1506 63.2449 51.8249 63.2449C48.8855 63.1489 49.1078 59.6388 50.1583 57.7752C50.7921 56.5403 51.7416 55.6919 52.5017 55.0126C54.5194 53.3283 54.4891 52.1237 52.4765 50.4571C50.5926 48.9773 49.1406 46.5657 49.4563 44.0203C50.1709 43.4647 50.8275 42.8006 51.4158 42.1288C52.3502 41.0834 52.4259 41.0834 52.7466 41.0834C53.0951 40.8511 54.3754 42.5152 54.9537 43.0707C53.6583 44.4141 54.1027 45.6214 55.691 46.9068ZM59.6784 39.2152L59.6809 39.1975C60.042 39.4677 60.3678 39.5687 60.8451 39.5687C62.1683 39.5687 63.2466 40.6445 63.2466 41.9702C63.2466 43.2884 62.1708 44.3641 60.8451 44.3641C58.5143 44.4651 56.4208 43.0434 55.0143 41.2934C54.0245 40.1874 53.6305 39.8288 52.7467 39.8288C51.7871 39.7101 50.9588 40.748 50.0775 41.7429C48.1911 44.1368 44.4892 45.1419 41.6961 43.7151C43.0395 42.5409 44.4007 41.2454 45.0597 39.5384C45.6986 39.4248 46.0976 39.0131 46.9082 38.1066C47.9334 36.8011 50.1304 34.9097 52.7491 35.0359C56.6355 35.1041 57.7212 37.4273 59.6784 39.2152ZM58.7592 36.4475C57.0471 34.5965 54.5218 33.5511 51.9888 33.8112C48.1075 30.4779 48.9484 25.2456 52.5014 22.6016C53.9231 21.397 54.158 20.8491 53.8474 19.4526L53.7615 19.445C52.7539 17.9576 50.7716 17.0233 49.9332 14.839C50.6706 14.3339 52.2059 12.1193 52.7464 12.286C53.0595 12.286 53.1428 12.286 54.0772 13.3314C54.9408 14.3315 55.9585 15.2733 57.1328 15.9223C58.8095 17.8087 59.1959 20.5612 58.2944 22.8614C57.4434 25.2453 55.1479 26.1064 54.2287 27.9069L54.2742 27.9549C54.0848 29.1771 54.4307 29.5761 55.7085 30.7124C56.9838 31.8614 58.7238 33.4248 58.7592 36.4475ZM55.8249 27.7733C56.9738 26.6723 58.2617 25.6496 59.042 24.2077C59.7061 24.9122 60.0976 25.1698 60.8426 25.1698C62.1658 25.1698 63.244 26.2456 63.244 27.5713C62.9056 31.743 57.1484 29.5461 55.8249 27.7733Z" stroke="#E8E8E8" mask="url(#path-1-outside-1_109_393)"/>
</svg>
