<svg width="75" height="64" viewBox="0 0 75 64" fill="none" xmlns="http://www.w3.org/2000/svg">
<path d="M72.6652 13.4945L61.0647 4.49815C57.3557 1.65721 52.6997 0 48.0438 0H26.8946C22.2386 0 17.5826 1.5783 13.8736 4.41924L2.2731 13.4945C-0.173262 15.3884 -0.725667 18.8607 1.01046 21.3859L5.19295 27.4624C6.13993 28.8039 7.5604 29.672 9.21761 29.9088C10.7959 30.1455 12.4531 29.672 13.7158 28.6461L17.4248 25.5684L16.3989 57.9236C16.32 59.5019 16.9513 61.0012 18.0561 62.185C19.1609 63.3687 20.6603 64 22.2386 64H52.5419C54.1202 64 55.6196 63.3687 56.7244 62.185C57.8292 61.0012 58.3816 59.5019 58.3816 57.9236L57.3557 25.5684L61.0647 28.6461C62.3274 29.672 63.9846 30.1455 65.5629 29.9088C67.1412 29.672 68.6405 28.8039 69.5875 27.4624L73.77 21.3859C75.664 18.8607 75.1116 15.3884 72.6652 13.4945ZM70.3767 18.9396L66.1942 25.016C65.8785 25.4106 65.5629 25.6473 65.0894 25.6473C64.6948 25.7263 64.2213 25.5684 63.9057 25.3317L56.4876 19.1763C55.8563 18.6239 54.9093 18.545 54.1991 18.8607C53.41 19.2552 52.9365 20.0444 53.0154 20.8335L54.1991 58.0025C54.1991 58.397 54.0413 58.7916 53.7256 59.1073C53.41 59.4229 53.0154 59.5808 52.6208 59.5808H22.3175C21.9229 59.5808 21.5283 59.4229 21.2127 59.1073C20.897 58.7916 20.7392 58.397 20.7392 58.0025L21.9229 20.9125C21.9229 20.0444 21.4494 19.2552 20.7392 18.9396C20.4235 18.7818 20.1079 18.7028 19.7922 18.7028C19.3187 18.7028 18.8452 18.8607 18.4507 19.1763L11.0327 25.3317C10.717 25.5684 10.2435 25.7263 9.84893 25.6473C9.45436 25.5684 9.05978 25.3317 8.82304 25.016L4.64055 18.9396C4.16706 18.2293 4.32489 17.3613 4.95621 16.8878L16.5567 7.89149C19.5555 5.60296 23.1856 4.34032 26.9735 4.34032H27.5259C28.6307 8.83847 32.6553 12.1529 37.5481 12.1529C42.4408 12.1529 46.3865 8.83847 47.5703 4.34032H48.1227C51.8317 4.34032 55.5407 5.60296 58.5394 7.89149L70.1399 16.8878C70.6923 17.3613 70.8502 18.3083 70.3767 18.9396Z" fill="#E8E8E8"/>
<path d="M47.6491 23.2012H41.4938C40.8625 23.2012 40.3101 23.7536 40.3101 24.3849V25.8054C40.3101 26.1999 40.5468 26.5945 40.8625 26.7523L43.9401 28.6463C44.098 28.7252 44.3347 28.8041 44.5715 28.8041C44.8082 28.8041 44.966 28.7252 45.2028 28.6463L48.2805 26.7523C48.5961 26.5156 48.8329 26.1999 48.8329 25.8054V24.3849C48.8329 23.7536 48.2805 23.2012 47.6491 23.2012Z" fill="#E8E8E8"/>
</svg>
