<svg width="68" height="64" viewBox="0 0 68 64" fill="none" xmlns="http://www.w3.org/2000/svg">
<path d="M10.691 12.9015H15.6106L18.2183 1.48031C18.3496 0.643032 19.0748 0 19.9503 0H47.6189C48.4152 0.00273674 49.1376 0.552714 49.3236 1.36263L51.9586 12.9015H56.8755C59.8142 12.9015 62.4848 14.1055 64.4217 16.0427C66.3644 17.9799 67.5683 20.6532 67.5683 23.5973V53.3042C67.5683 56.2456 66.3644 58.9216 64.4272 60.8588L64.3259 60.9546C62.3969 62.8371 59.7647 64 56.875 64H10.693C7.75155 64 5.07827 62.796 3.14119 60.8588C1.20411 58.9216 0 56.2456 0 53.3042V23.5973C0 20.6558 1.20397 17.9798 3.14119 16.0427C5.07841 14.1055 7.75169 12.9015 10.693 12.9015L10.691 12.9015ZM30.2957 9.9546C29.3299 9.9546 28.5446 9.1693 28.5446 8.20342C28.5446 7.23754 29.3299 6.45225 30.2957 6.45225H37.2731C38.2389 6.45225 39.0242 7.23754 39.0242 8.20342C39.0242 9.1693 38.2389 9.9546 37.2731 9.9546H30.2957ZM33.7817 32.0986C32.8158 32.0986 32.0305 31.3133 32.0305 30.3474C32.0305 29.3815 32.8158 28.5962 33.7817 28.5962C35.7053 28.5962 37.5166 29.138 39.0653 30.0793C40.6661 31.0506 41.9794 32.4406 42.8386 34.0933C43.2846 34.9498 42.9508 36.0087 42.0943 36.4547C41.2379 36.9007 40.179 36.5669 39.733 35.7104C39.1611 34.6132 38.3019 33.6938 37.2595 33.0618C36.2553 32.4516 35.065 32.1014 33.7818 32.1014L33.7817 32.0986ZM40.1571 40.9035C40.4553 39.9869 41.4431 39.4834 42.3597 39.7816C43.2764 40.0799 43.7798 41.0676 43.4816 41.9843C43.3475 42.3892 43.1834 42.7997 42.9864 43.2074C42.8112 43.5877 42.5923 43.9763 42.3406 44.3647C41.8152 45.1719 40.7344 45.4018 39.9273 44.8764C39.1201 44.3511 38.8902 43.2702 39.4156 42.4631C39.5579 42.2414 39.7002 41.987 39.8342 41.7052C39.9574 41.4616 40.0668 41.1935 40.1598 40.9035L40.1571 40.9035ZM19.1948 12.9008H48.3708L46.2229 3.50186H21.3401L19.1922 12.9008H19.1948ZM52.8475 25.933C51.8817 25.933 51.0964 25.1477 51.0964 24.1819C51.0964 23.216 51.8817 22.4307 52.8475 22.4307H57.7727C58.7386 22.4307 59.5239 23.216 59.5239 24.1819C59.5239 25.1477 58.7386 25.933 57.7727 25.933H52.8475ZM33.7814 21.6563C38.4138 21.6563 42.6109 23.5361 45.6481 26.576L45.6536 26.5815C48.6907 29.6214 50.5733 33.8159 50.5733 38.4482C50.5733 43.0778 48.6907 47.2755 45.6508 50.3176C42.6164 53.3603 38.4164 55.24 33.7814 55.24C29.1489 55.24 24.954 53.3603 21.9147 50.3204L21.9092 50.3149C18.872 47.275 16.9895 43.0804 16.9895 38.4482C16.9895 33.8131 18.8693 29.6132 21.9092 26.5759L22.0104 26.4829C25.0422 23.5004 29.1987 21.659 33.7819 21.659L33.7814 21.6563ZM43.1831 29.047C40.7807 26.6446 37.4535 25.1588 33.7814 25.1588C30.1505 25.1588 26.8588 26.6117 24.4617 28.9649L24.3823 29.0497C21.9772 31.4548 20.4914 34.7766 20.4914 38.4486C20.4914 42.1206 21.9772 45.4479 24.3796 47.8503C26.782 50.2528 30.1092 51.7385 33.7813 51.7385C37.4506 51.7385 40.7751 50.25 43.1802 47.8476C45.5853 45.4479 47.0711 42.1262 47.0711 38.4487C47.0711 34.7767 45.5855 31.4522 43.1831 29.047ZM56.8724 16.4028H10.6904C8.71486 16.4028 6.91717 17.2127 5.61198 18.5151C4.30953 19.8176 3.49964 21.618 3.49964 23.5935V53.3005C3.49964 55.276 4.30953 57.0765 5.61198 58.3789C6.91444 59.6814 8.71486 60.4913 10.6904 60.4913H56.8724C58.8124 60.4913 60.58 59.7142 61.8742 58.4583L61.9508 58.3762C63.2533 57.0737 64.0632 55.2733 64.0632 53.2978V23.5908C64.0632 21.6153 63.2533 19.8149 61.9508 18.5124C60.6511 17.2072 58.8507 16.4001 56.8724 16.4001L56.8724 16.4028Z" fill="#E8E8E8"/>
</svg>
