<svg width="59" height="64" viewBox="0 0 59 64" fill="none" xmlns="http://www.w3.org/2000/svg">
<path d="M56.1804 1.10931C54.6616 0.00243949 52.6963 -0.296296 50.9164 0.304314L25.5903 8.65619H12.5783C9.24197 8.65619 6.04081 9.98001 3.68224 12.3416C1.32383 14.7 7.39647e-06 17.8979 7.39647e-06 21.2344V27.9416C-0.00313774 30.8409 0.996839 33.6522 2.83006 35.8942C4.66643 38.1394 7.21981 39.6802 10.0625 40.2525V56.4531C10.0625 60.6196 13.4397 64 17.6094 64C21.7759 64 25.1563 60.6196 25.1563 56.4531V40.5198H25.5933L50.9854 48.9723H50.9823C52.7621 49.5163 54.6929 49.1798 56.1802 48.0666C57.7179 46.966 58.6267 45.1925 58.6298 43.3058V5.77268C58.5952 3.91739 57.6866 2.19107 56.1804 1.10931ZM20.1252 56.453C20.1252 57.843 18.9964 58.9687 17.6096 58.9687C16.2197 58.9687 15.094 57.843 15.094 56.453V40.5197H20.1252V56.453ZM23.4805 35.4884H12.5784C8.40871 35.4884 5.0315 32.1112 5.0315 27.9416V21.2343C5.0315 17.0678 8.40871 13.6874 12.5784 13.6874H23.4805V35.4884ZM53.668 43.4032L53.6648 43.4063C53.6711 43.6799 53.5485 43.9409 53.3315 44.1107C53.0831 44.2082 52.8064 44.2082 52.558 44.1107L28.5086 36.0953V12.983L52.558 4.9676C52.8064 4.86698 53.0831 4.86698 53.3315 4.9676C53.5485 5.13426 53.6711 5.39526 53.6648 5.67198L53.668 43.4032Z" fill="#E8E8E8"/>
</svg>
