<svg width="188" height="54" viewBox="0 0 188 54" fill="none" xmlns="http://www.w3.org/2000/svg">
<path d="M6.34982 27.398C5.92676 27.398 5.44911 27.3776 4.91687 27.3366C4.71217 27.323 4.45969 27.3093 4.15946 27.2957C3.87287 27.282 3.54534 27.2752 3.17686 27.2752L1.74392 27.2957C1.48462 27.3093 1.12979 27.3162 0.679439 27.3162C0.652145 27.3162 0.638498 27.2752 0.638498 27.1933C0.638498 27.1115 0.652145 27.0705 0.679439 27.0705C1.17074 27.0705 1.53238 27.0364 1.76439 26.9682C1.99639 26.8999 2.15333 26.7703 2.23521 26.5792C2.33074 26.3745 2.37851 26.0674 2.37851 25.658V16.1801C2.37851 15.7707 2.33757 15.4705 2.25568 15.2794C2.1738 15.0883 2.01686 14.9587 1.78486 14.8905C1.5665 14.8086 1.21168 14.7676 0.72038 14.7676C0.679439 14.7676 0.658968 14.7267 0.658968 14.6448C0.658968 14.5629 0.679439 14.522 0.72038 14.522L1.74392 14.5425C2.34439 14.5697 2.82204 14.5834 3.17686 14.5834C3.68181 14.5834 4.2004 14.5629 4.73264 14.522C5.3877 14.4947 5.83123 14.481 6.06323 14.481C7.46889 14.481 8.7176 14.754 9.80937 15.2999C10.9011 15.8458 11.7473 16.5895 12.3477 17.5312C12.9482 18.4728 13.2484 19.5305 13.2484 20.7041C13.2484 22.0279 12.9346 23.2016 12.3068 24.2251C11.6927 25.235 10.8534 26.0197 9.7889 26.5792C8.73807 27.1251 7.59171 27.398 6.34982 27.398ZM6.14511 27.0296C7.16865 27.0296 8.07618 26.8044 8.86772 26.354C9.65925 25.89 10.2734 25.2213 10.7101 24.3479C11.1604 23.4608 11.3856 22.3964 11.3856 21.1545C11.3856 19.9672 11.1741 18.8959 10.751 17.9406C10.328 16.9716 9.72749 16.2142 8.9496 15.6683C8.18536 15.1088 7.29147 14.829 6.26794 14.829C5.68111 14.829 5.23076 14.8632 4.91687 14.9314C4.60299 14.9996 4.37099 15.1361 4.22087 15.3408C4.07075 15.5319 3.99569 15.8253 3.99569 16.221V25.4329C3.99569 25.8286 4.05028 26.1425 4.15946 26.3745C4.28228 26.5929 4.49381 26.7566 4.79405 26.8658C5.10793 26.975 5.55829 27.0296 6.14511 27.0296Z" fill="white"/>
<path d="M30.6482 27.3162C30.307 27.3162 29.6724 26.743 28.7444 25.5966C27.83 24.4503 26.7178 22.8467 25.4077 20.786L26.7792 20.3561C27.9392 22.062 28.915 23.3926 29.7065 24.3479C30.498 25.3032 31.194 25.9992 31.7945 26.4359C32.4086 26.859 33.0023 27.0705 33.5755 27.0705C33.6164 27.0705 33.6369 27.1115 33.6369 27.1933C33.6369 27.2752 33.6164 27.3162 33.5755 27.3162H30.6482ZM25.7147 14.4606C26.8474 14.4606 27.7208 14.6994 28.335 15.177C28.9491 15.6547 29.2561 16.3029 29.2561 17.1218C29.2561 17.8587 29.0378 18.5342 28.6011 19.1484C28.178 19.7488 27.6117 20.2265 26.902 20.5813C26.1924 20.9225 25.4349 21.0931 24.6298 21.0931C24.3432 21.0931 24.0088 21.0794 23.6267 21.0521V25.658C23.6267 26.0674 23.6676 26.3745 23.7495 26.5792C23.8314 26.7703 23.9815 26.8999 24.1999 26.9682C24.4319 27.0364 24.7935 27.0705 25.2848 27.0705C25.3258 27.0705 25.3462 27.1115 25.3462 27.1933C25.3462 27.2752 25.3258 27.3162 25.2848 27.3162C24.8618 27.3162 24.5274 27.3093 24.2818 27.2957L22.8079 27.2752L21.3749 27.2957C21.1156 27.3093 20.7676 27.3162 20.3309 27.3162C20.29 27.3162 20.2695 27.2752 20.2695 27.1933C20.2695 27.1115 20.29 27.0705 20.3309 27.0705C20.8222 27.0705 21.1839 27.0364 21.4159 26.9682C21.6479 26.8999 21.8048 26.7703 21.8867 26.5792C21.9686 26.3745 22.0095 26.0674 22.0095 25.658V16.1801C22.0095 15.7707 21.9686 15.4705 21.8867 15.2794C21.8048 15.0883 21.6479 14.9587 21.4159 14.8905C21.1975 14.8086 20.8427 14.7676 20.3514 14.7676C20.3241 14.7676 20.3105 14.7267 20.3105 14.6448C20.3105 14.5629 20.3241 14.522 20.3514 14.522L21.3749 14.5425C21.9754 14.5697 22.4531 14.5834 22.8079 14.5834C23.0945 14.5834 23.3674 14.5766 23.6267 14.5629C23.886 14.5493 24.1112 14.5356 24.3022 14.522C24.8208 14.481 25.2917 14.4606 25.7147 14.4606ZM27.5775 17.7768C27.5775 16.685 27.366 15.9208 26.943 15.4841C26.5199 15.0337 25.899 14.8086 25.0801 14.8086C24.5479 14.8086 24.1726 14.9109 23.9542 15.1156C23.7359 15.3067 23.6267 15.6752 23.6267 16.221V20.5404C24.0225 20.5813 24.4251 20.6018 24.8345 20.6018C25.8171 20.6018 26.5199 20.3766 26.943 19.9262C27.366 19.4622 27.5775 18.7458 27.5775 17.7768Z" fill="white"/>
<path d="M39.7782 27.3162C39.7372 27.3162 39.7168 27.2752 39.7168 27.1933C39.7168 27.1115 39.7372 27.0705 39.7782 27.0705C40.2695 27.0705 40.6243 27.0364 40.8427 26.9682C41.0747 26.8999 41.2316 26.7703 41.3135 26.5792C41.3954 26.3745 41.4363 26.0674 41.4363 25.658V16.1801C41.4363 15.7707 41.3954 15.4705 41.3135 15.2794C41.2316 15.0883 41.0747 14.9587 40.8427 14.8905C40.6243 14.8086 40.2695 14.7676 39.7782 14.7676C39.7372 14.7676 39.7168 14.7267 39.7168 14.6448C39.7168 14.5629 39.7372 14.522 39.7782 14.522H48.1302C48.2667 14.522 48.3349 14.5834 48.3349 14.7062L48.3759 17.2855C48.3759 17.3265 48.3349 17.3538 48.2531 17.3674C48.1848 17.3674 48.1439 17.3469 48.1302 17.306C48.0347 16.5554 47.7686 15.9822 47.3319 15.5865C46.8952 15.1907 46.322 14.9928 45.6123 14.9928H44.5683C43.9679 14.9928 43.5653 15.0815 43.3606 15.2589C43.1559 15.4363 43.0535 15.7707 43.0535 16.262V25.5762C43.0535 26.0674 43.1422 26.4018 43.3196 26.5792C43.5107 26.7566 43.886 26.8453 44.4455 26.8453H45.7966C46.5608 26.8453 47.1954 26.6202 47.7003 26.1698C48.2189 25.7058 48.5738 25.0507 48.7648 24.2046C48.7648 24.1773 48.7921 24.1637 48.8467 24.1637C48.8876 24.1637 48.9218 24.1773 48.9491 24.2046C48.99 24.2183 49.0105 24.2319 49.0105 24.2456C48.874 25.2282 48.8058 26.1493 48.8058 27.0091C48.8058 27.1183 48.7853 27.2002 48.7444 27.2548C48.7034 27.2957 48.6215 27.3162 48.4987 27.3162H39.7782ZM47.3523 22.6079C47.3523 22.0211 47.1818 21.5912 46.8406 21.3182C46.513 21.0317 45.9876 20.8884 45.2643 20.8884H42.2756V20.4175H45.3053C46.0013 20.4175 46.513 20.3015 46.8406 20.0695C47.1681 19.8239 47.3319 19.4486 47.3319 18.9436C47.3319 18.9164 47.366 18.9027 47.4342 18.9027C47.5161 18.9027 47.5571 18.9164 47.5571 18.9436L47.5366 20.6632L47.5571 21.5844C47.5843 22.0211 47.598 22.3623 47.598 22.6079C47.598 22.6352 47.5571 22.6488 47.4752 22.6488C47.3933 22.6488 47.3523 22.6352 47.3523 22.6079Z" fill="white"/>
<path d="M59.3481 21.523H64.9161L65.0594 21.9733H59.1024L59.3481 21.523ZM69.6858 27.0705C69.754 27.0705 69.7881 27.1115 69.7881 27.1933C69.7881 27.2752 69.754 27.3162 69.6858 27.3162C69.4265 27.3162 69.0239 27.3025 68.478 27.2752C67.9048 27.2479 67.4954 27.2343 67.2498 27.2343C66.9359 27.2343 66.5469 27.2479 66.0829 27.2752C65.6189 27.3025 65.2709 27.3162 65.0389 27.3162C64.9843 27.3162 64.9571 27.2752 64.9571 27.1933C64.9571 27.1115 64.9843 27.0705 65.0389 27.0705C65.5029 27.0705 65.8373 27.0296 66.042 26.9477C66.2467 26.8522 66.3491 26.6884 66.3491 26.4564C66.3491 26.2244 66.2467 25.9037 66.042 25.4943L61.6408 16.3439L62.2959 15.3613L58.3041 24.614C58.113 25.078 58.0175 25.4602 58.0175 25.7604C58.0175 26.1971 58.1881 26.5246 58.5293 26.743C58.8704 26.9613 59.3617 27.0705 60.0031 27.0705C60.0714 27.0705 60.1055 27.1115 60.1055 27.1933C60.1055 27.2752 60.0714 27.3162 60.0031 27.3162C59.7575 27.3162 59.4027 27.3025 58.9387 27.2752C58.4201 27.2479 57.9697 27.2343 57.5876 27.2343C57.2328 27.2343 56.8097 27.2479 56.3184 27.2752C55.8817 27.3025 55.5269 27.3162 55.2539 27.3162C55.1994 27.3162 55.1721 27.2752 55.1721 27.1933C55.1721 27.1115 55.1994 27.0705 55.2539 27.0705C55.6361 27.0705 55.9568 26.9955 56.2161 26.8453C56.489 26.6952 56.7483 26.4359 56.994 26.0674C57.2396 25.699 57.5194 25.1531 57.8333 24.4298L62.1935 14.3787C62.2072 14.3377 62.2549 14.3173 62.3368 14.3173C62.4187 14.3036 62.4665 14.3241 62.4801 14.3787L67.3931 24.5117C67.8707 25.5079 68.2665 26.1835 68.5804 26.5383C68.9079 26.8931 69.2764 27.0705 69.6858 27.0705Z" fill="white"/>
<path d="M77.8741 14.9928L78.3859 15.0337L78.1812 24.9825C78.1675 25.6922 78.2972 26.2176 78.5701 26.5587C78.8431 26.8999 79.2866 27.0705 79.9007 27.0705C79.9417 27.0705 79.9621 27.1115 79.9621 27.1933C79.9621 27.2752 79.9417 27.3162 79.9007 27.3162C79.5322 27.3162 79.2457 27.3093 79.0409 27.2957L77.9151 27.2752L76.7892 27.2957C76.5981 27.3093 76.3183 27.3162 75.9499 27.3162C75.9226 27.3162 75.9089 27.2752 75.9089 27.1933C75.9089 27.1115 75.9226 27.0705 75.9499 27.0705C77.0826 27.0705 77.6558 26.3745 77.6694 24.9825L77.8741 14.9928ZM91.9989 27.0705C92.0262 27.0705 92.0398 27.1115 92.0398 27.1933C92.0398 27.2752 92.0262 27.3162 91.9989 27.3162C91.5485 27.3162 91.1937 27.3093 90.9344 27.2957L89.5015 27.2752L88.1299 27.2957C87.8979 27.3093 87.5772 27.3162 87.1678 27.3162C87.1405 27.3162 87.1269 27.2752 87.1269 27.1933C87.1269 27.1115 87.1405 27.0705 87.1678 27.0705C87.6318 27.0705 87.973 27.0364 88.1913 26.9682C88.4097 26.8863 88.553 26.7498 88.6212 26.5587C88.6895 26.3677 88.7099 26.0674 88.6826 25.658L88.2732 16.0163L89.0716 14.87L83.7697 27.1729C83.7424 27.2275 83.6878 27.2548 83.6059 27.2548C83.524 27.2548 83.4694 27.2275 83.4421 27.1729L78.0993 16.221C77.8536 15.7161 77.5671 15.3476 77.2395 15.1156C76.912 14.8836 76.5299 14.7676 76.0932 14.7676C76.0659 14.7676 76.0522 14.7267 76.0522 14.6448C76.0522 14.5629 76.0659 14.522 76.0932 14.522L76.912 14.5425C77.0758 14.5561 77.2873 14.5629 77.5466 14.5629C77.8468 14.5629 78.0925 14.5561 78.2835 14.5425C78.4746 14.5288 78.6247 14.522 78.7339 14.522C78.9113 14.522 79.0546 14.5834 79.1638 14.7062C79.2729 14.829 79.4435 15.1225 79.6755 15.5865L84.3224 25.0234L83.565 26.3336L88.4984 15.0337C88.6349 14.6926 88.8396 14.522 89.1125 14.522C89.1944 14.522 89.3036 14.5288 89.4401 14.5425C89.5765 14.5561 89.7539 14.5629 89.9723 14.5629L91.0163 14.5425C91.1801 14.5288 91.4189 14.522 91.7328 14.522C91.7601 14.522 91.7737 14.5629 91.7737 14.6448C91.7737 14.7267 91.7601 14.7676 91.7328 14.7676C91.0504 14.7676 90.5659 14.8768 90.2794 15.0952C89.9928 15.3135 89.8563 15.6956 89.8699 16.2415L90.2998 25.658C90.3271 26.0811 90.3817 26.3882 90.4636 26.5792C90.5455 26.7703 90.6956 26.8999 90.9139 26.9682C91.146 27.0364 91.5076 27.0705 91.9989 27.0705Z" fill="white"/>
<path d="M100.904 16.8147C100.904 17.3333 101.034 17.7905 101.293 18.1862C101.552 18.5684 101.866 18.9027 102.235 19.1893C102.603 19.4622 103.115 19.7966 103.77 20.1924C104.452 20.6154 104.991 20.9839 105.387 21.2978C105.796 21.598 106.144 21.9733 106.431 22.4237C106.718 22.874 106.861 23.4063 106.861 24.0204C106.861 24.6891 106.684 25.2964 106.329 25.8423C105.988 26.3745 105.489 26.7976 104.834 27.1115C104.193 27.4117 103.442 27.5618 102.583 27.5618C102.037 27.5618 101.498 27.4936 100.965 27.3571C100.433 27.2343 99.9691 27.05 99.5734 26.8044C99.5051 26.7635 99.4574 26.7157 99.4301 26.6611C99.4028 26.6065 99.3891 26.5246 99.3891 26.4155L99.1844 23.4881C99.1708 23.4336 99.1981 23.3994 99.2663 23.3858C99.3482 23.3721 99.3959 23.3926 99.4096 23.4472C99.7371 24.4844 100.194 25.3646 100.781 26.0879C101.368 26.8112 102.132 27.1729 103.074 27.1729C103.715 27.1729 104.254 27.0023 104.691 26.6611C105.128 26.3063 105.346 25.7331 105.346 24.9416C105.346 24.3411 105.21 23.8157 104.937 23.3653C104.664 22.915 104.329 22.5397 103.934 22.2394C103.538 21.9255 103.012 21.5707 102.357 21.175C101.716 20.7655 101.204 20.4175 100.822 20.1309C100.454 19.8307 100.14 19.4691 99.8804 19.046C99.6211 18.6093 99.4915 18.1044 99.4915 17.5312C99.4915 16.8352 99.6757 16.2415 100.044 15.7502C100.426 15.2589 100.918 14.8973 101.518 14.6653C102.132 14.4196 102.774 14.2968 103.442 14.2968C104.343 14.2968 105.169 14.4537 105.919 14.7676C106.124 14.8632 106.226 14.986 106.226 15.1361L106.329 17.6949C106.329 17.7495 106.288 17.7836 106.206 17.7973C106.138 17.7973 106.097 17.77 106.083 17.7154C105.933 16.9785 105.612 16.2825 105.121 15.6274C104.643 14.9723 103.954 14.6448 103.053 14.6448C102.371 14.6448 101.839 14.8495 101.457 15.2589C101.088 15.6683 100.904 16.1869 100.904 16.8147Z" fill="white"/>
<path d="M117.178 14.9314C116.332 14.9314 115.67 15.1702 115.193 15.6479C114.715 16.1119 114.36 16.8625 114.128 17.8996C114.114 17.9269 114.067 17.9406 113.985 17.9406C113.916 17.9406 113.882 17.9201 113.882 17.8792C113.937 17.4971 113.998 16.8761 114.067 16.0163C114.135 15.1566 114.169 14.5083 114.169 14.0716C114.169 14.0034 114.21 13.9693 114.292 13.9693C114.374 13.9693 114.415 14.0034 114.415 14.0716C114.415 14.3719 114.79 14.522 115.541 14.522C116.714 14.5629 118.086 14.5834 119.655 14.5834C120.46 14.5834 121.313 14.5697 122.214 14.5425L123.606 14.522C124.111 14.522 124.479 14.4879 124.711 14.4196C124.943 14.3514 125.093 14.2149 125.162 14.0102C125.175 13.9556 125.216 13.9283 125.285 13.9283C125.366 13.9283 125.407 13.9556 125.407 14.0102C125.366 14.3923 125.319 15.0065 125.264 15.8526C125.223 16.6987 125.203 17.3742 125.203 17.8792C125.203 17.9201 125.162 17.9406 125.08 17.9406C125.012 17.9406 124.977 17.9201 124.977 17.8792C124.882 16.8283 124.609 16.0778 124.159 15.6274C123.708 15.1634 123.04 14.9314 122.153 14.9314C121.648 14.9314 121.286 14.9655 121.068 15.0337C120.849 15.0883 120.699 15.2043 120.617 15.3817C120.535 15.5455 120.494 15.8253 120.494 16.221V25.658C120.494 26.0811 120.535 26.3882 120.617 26.5792C120.713 26.7703 120.89 26.8999 121.149 26.9682C121.409 27.0364 121.825 27.0705 122.398 27.0705C122.425 27.0705 122.439 27.1115 122.439 27.1933C122.439 27.2752 122.425 27.3162 122.398 27.3162C121.921 27.3162 121.545 27.3093 121.272 27.2957L119.655 27.2752L118.079 27.2957C117.806 27.3093 117.424 27.3162 116.933 27.3162C116.892 27.3162 116.871 27.2752 116.871 27.1933C116.871 27.1115 116.892 27.0705 116.933 27.0705C117.492 27.0705 117.901 27.0364 118.161 26.9682C118.434 26.8999 118.618 26.7703 118.713 26.5792C118.809 26.3745 118.857 26.0674 118.857 25.658V16.1801C118.857 15.798 118.816 15.525 118.734 15.3613C118.652 15.1839 118.495 15.0679 118.263 15.0133C118.045 14.9587 117.683 14.9314 117.178 14.9314Z" fill="white"/>
<path d="M154.862 14.2968C155.654 14.2968 156.35 14.3582 156.95 14.481C157.565 14.5902 158.138 14.7745 158.67 15.0337C158.766 15.0747 158.827 15.1225 158.854 15.177C158.882 15.218 158.902 15.3203 158.916 15.4841L159.182 18.0429C159.182 18.0839 159.141 18.1112 159.059 18.1248C158.991 18.1385 158.95 18.118 158.936 18.0634C158.24 15.7843 156.834 14.6448 154.719 14.6448C153.641 14.6448 152.686 14.8973 151.853 15.4022C151.021 15.9072 150.373 16.6236 149.909 17.5516C149.458 18.4796 149.233 19.5646 149.233 20.8065C149.233 22.0211 149.479 23.1197 149.97 24.1023C150.475 25.0712 151.15 25.8354 151.997 26.395C152.856 26.9409 153.798 27.2138 154.822 27.2138C155.886 27.2138 156.759 26.9477 157.442 26.4155C158.124 25.8696 158.677 25.0303 159.1 23.8976C159.114 23.8703 159.148 23.8566 159.202 23.8566C159.23 23.8566 159.257 23.8703 159.284 23.8976C159.325 23.9112 159.346 23.9249 159.346 23.9385L159.12 26.2722C159.107 26.4359 159.086 26.5383 159.059 26.5792C159.032 26.6202 158.963 26.6679 158.854 26.7225C158.172 27.0364 157.517 27.2548 156.889 27.3776C156.261 27.514 155.572 27.5823 154.822 27.5823C153.375 27.5823 152.085 27.3025 150.953 26.743C149.82 26.1698 148.933 25.3783 148.291 24.3684C147.664 23.3585 147.35 22.1985 147.35 20.8884C147.35 19.6055 147.67 18.466 148.312 17.4698C148.967 16.4599 149.868 15.682 151.014 15.1361C152.16 14.5766 153.443 14.2968 154.862 14.2968Z" fill="white"/>
<path d="M177.298 16.221C177.298 15.8116 177.258 15.5114 177.176 15.3203C177.094 15.1156 176.93 14.9723 176.684 14.8905C176.439 14.8086 176.057 14.7676 175.538 14.7676C175.497 14.7676 175.477 14.7267 175.477 14.6448C175.477 14.5629 175.497 14.522 175.538 14.522L176.5 14.5425C177.128 14.5697 177.667 14.5834 178.117 14.5834C178.499 14.5834 178.991 14.5697 179.591 14.5425L180.635 14.522C180.676 14.522 180.697 14.5629 180.697 14.6448C180.697 14.7267 180.676 14.7676 180.635 14.7676C180.13 14.7676 179.755 14.8086 179.509 14.8905C179.277 14.9587 179.12 15.0883 179.038 15.2794C178.957 15.4705 178.916 15.7707 178.916 16.1801V25.658C178.916 26.0674 178.957 26.3745 179.038 26.5792C179.12 26.7703 179.277 26.8999 179.509 26.9682C179.755 27.0364 180.13 27.0705 180.635 27.0705C180.676 27.0705 180.697 27.1115 180.697 27.1933C180.697 27.2752 180.676 27.3162 180.635 27.3162C180.198 27.3162 179.85 27.3093 179.591 27.2957L178.117 27.2752L176.5 27.2957C176.268 27.3093 175.947 27.3162 175.538 27.3162C175.497 27.3162 175.477 27.2752 175.477 27.1933C175.477 27.1115 175.497 27.0705 175.538 27.0705C176.07 27.0705 176.452 27.0364 176.684 26.9682C176.93 26.8999 177.094 26.7703 177.176 26.5792C177.258 26.3882 177.298 26.0811 177.298 25.658V16.221ZM168.967 20.4175H178.015V20.8884H168.967V20.4175ZM168.209 16.1801C168.209 15.7707 168.169 15.4705 168.087 15.2794C168.005 15.0883 167.848 14.9587 167.616 14.8905C167.384 14.8086 167.015 14.7676 166.51 14.7676C166.469 14.7676 166.449 14.7267 166.449 14.6448C166.449 14.5629 166.469 14.522 166.51 14.522L167.554 14.5425C168.128 14.5697 168.605 14.5834 168.987 14.5834C169.41 14.5834 169.936 14.5697 170.564 14.5425L171.608 14.522C171.635 14.522 171.649 14.5629 171.649 14.6448C171.649 14.7267 171.635 14.7676 171.608 14.7676C171.089 14.7676 170.707 14.8086 170.461 14.8905C170.216 14.9723 170.045 15.1156 169.949 15.3203C169.868 15.5114 169.827 15.8116 169.827 16.221V25.658C169.827 26.0674 169.868 26.3745 169.949 26.5792C170.045 26.7703 170.209 26.8999 170.441 26.9682C170.686 27.0364 171.075 27.0705 171.608 27.0705C171.635 27.0705 171.649 27.1115 171.649 27.1933C171.649 27.2752 171.635 27.3162 171.608 27.3162C171.157 27.3162 170.809 27.3093 170.564 27.2957L168.987 27.2752L167.534 27.2957C167.275 27.3093 166.92 27.3162 166.469 27.3162C166.442 27.3162 166.429 27.2752 166.429 27.1933C166.429 27.1115 166.442 27.0705 166.469 27.0705C166.974 27.0705 167.343 27.0364 167.575 26.9682C167.821 26.8999 167.984 26.7703 168.066 26.5792C168.162 26.3745 168.209 26.0674 168.209 25.658V16.1801Z" fill="white"/>
<path d="M169.077 32.625C170.447 32.626 171.28 32.6346 171.461 32.6533C172.891 32.8016 173.749 33.8518 173.749 34.9414C173.749 35.4854 173.533 36.0283 173.083 36.4502C172.634 36.8709 171.967 37.159 171.081 37.2305L171.068 37.2314L171.057 37.2305L165.049 37.1445V35.2227C165.211 35.2229 165.371 35.2246 165.529 35.2246C171.591 35.2246 172.31 34.6136 172.31 34.3105C172.309 34.0076 171.34 33.7617 167.789 33.7617C161.727 33.7617 151.003 33.3963 151.002 34.3105C151.002 34.9445 157.36 35.165 163.002 35.2129V37.1152L0 34.79L0.000976562 34.2783L0.00390625 34.5342C0.00105424 34.2805 0.00166143 34.2783 0.00292969 34.2783H0.0322266C0.0526106 34.2781 0.0830868 34.2778 0.123047 34.2773C0.204192 34.2764 0.32577 34.2752 0.485352 34.2734C0.80483 34.2699 1.2791 34.2638 1.89746 34.2568C3.1345 34.243 4.94939 34.223 7.25977 34.1973C11.8808 34.1459 18.4856 34.0732 26.4189 33.9863C42.2858 33.8126 63.4695 33.5836 84.7344 33.3633C105.999 33.1429 127.347 32.9308 143.541 32.791C151.638 32.7211 158.447 32.6695 163.314 32.6436C165.748 32.6306 167.696 32.624 169.077 32.625Z" fill="white"/>
<path d="M164.025 33.6896C164.025 33.6896 164.025 30.363 164.025 42.6455C164.025 54.9279 187.31 56.9749 187.31 42.6455C187.31 28.316 187.356 12.963 187.356 7.33351C187.356 1.70407 183.216 0.680539 179.378 0.680535C175.54 0.680531 145.857 0.680535 142.019 0.680535C138.181 0.680535 136.901 -0.0871651 136.646 5.03055C136.39 10.1483 136.39 12.1544 136.39 12.1544" stroke="white" stroke-width="1.27942"/>
<path d="M141.229 26.0651C141.229 26.3801 141.105 26.6797 140.883 26.9053C140.665 27.1231 140.362 27.2515 140.043 27.2515H132.714C132.395 27.2515 132.092 27.1231 131.878 26.9092C131.652 26.6797 131.528 26.3801 131.528 26.0651C131.528 25.8433 131.586 25.6372 131.707 25.4388L133.08 23.2255C133.632 22.3348 133.687 21.2417 133.224 20.2965L132.037 17.8771C131.905 17.6048 131.831 17.2975 131.831 16.9941C131.831 16.2122 132.29 15.4926 132.998 15.1659L133.589 14.8897C134.227 14.598 134.768 14.1195 135.169 13.5088C135.484 13.0148 135.622 12.6661 135.878 11.8984H136.987C137.046 12.4663 137.273 13.0148 137.588 13.5127C137.981 14.1195 138.526 14.598 139.163 14.8897L139.759 15.1659C140.467 15.4926 140.922 16.2083 140.922 16.9941C140.922 17.2975 140.848 17.6048 140.716 17.8771L139.521 20.3004C139.066 21.2456 139.125 22.3348 139.673 23.2216L141.046 25.431C141.167 25.6333 141.229 25.8433 141.229 26.0651Z" fill="white"/>
<path d="M135.794 12.0815C135.79 12.0827 135.782 12.0908 135.777 12.1019C135.771 12.1136 135.778 12.1179 135.777 12.1278C135.776 12.1364 135.765 12.1562 135.763 12.2049C135.762 12.2303 135.754 12.2459 135.752 12.2541C135.752 12.258 135.751 12.2612 135.737 12.3166C135.722 12.372 135.693 12.4796 135.664 12.5904" stroke="white" stroke-width="0.0511767" stroke-linecap="round"/>
</svg>
